<svg width="16" height="16" viewBox="0 0 16 16" fill="none" xmlns="http://www.w3.org/2000/svg">
<path d="M15.5312 0H13.6562C13.3974 0 13.1875 0.209875 13.1875 0.46875V0.9375H9.32563C9.13213 0.391937 8.61109 0 8 0C7.38891 0 6.86788 0.391937 6.67438 0.9375H2.8125V0.46875C2.8125 0.209875 2.60263 0 2.34375 0H0.46875C0.209875 0 0 0.209875 0 0.46875V2.34375C0 2.60263 0.209875 2.8125 0.46875 2.8125H2.34375C2.60263 2.8125 2.8125 2.60263 2.8125 2.34375V1.86875H4.76178C3.07066 2.93981 2.04266 4.74922 1.919 6.67006C1.36681 6.85994 0.96875 7.38419 0.96875 8C0.96875 8.77541 1.59959 9.40625 2.375 9.40625C3.15041 9.40625 3.78125 8.77541 3.78125 8C3.78125 7.39438 3.39641 6.87694 2.85844 6.67938C3.02488 4.47166 4.61462 2.57019 6.7405 2.03069C6.97094 2.49356 7.44878 2.8125 8 2.8125C8.55122 2.8125 9.02906 2.49356 9.2595 2.03072C11.3854 2.57022 12.9751 4.47169 13.1416 6.67941C12.6036 6.87694 12.2188 7.39438 12.2188 8C12.2188 8.77541 12.8496 9.40625 13.625 9.40625C14.4004 9.40625 15.0312 8.77541 15.0312 8C15.0312 7.38419 14.6332 6.85994 14.081 6.67006C13.9571 4.74538 12.926 2.94397 11.2382 1.875H13.1875V2.34375C13.1875 2.60263 13.3974 2.8125 13.6562 2.8125H15.5312C15.7901 2.8125 16 2.60263 16 2.34375V0.46875C16 0.209875 15.7901 0 15.5312 0ZM1.875 1.875H0.9375V0.9375H1.875V1.875ZM2.375 8.46875C2.11653 8.46875 1.90625 8.25847 1.90625 8C1.90625 7.74153 2.11653 7.53125 2.375 7.53125C2.63347 7.53125 2.84375 7.74153 2.84375 8C2.84375 8.25847 2.63347 8.46875 2.375 8.46875ZM8 1.875C7.74153 1.875 7.53125 1.66472 7.53125 1.40625C7.53125 1.14778 7.74153 0.9375 8 0.9375C8.25847 0.9375 8.46875 1.14778 8.46875 1.40625C8.46875 1.66472 8.25847 1.875 8 1.875ZM13.625 7.53125C13.8835 7.53125 14.0938 7.74153 14.0938 8C14.0938 8.25847 13.8835 8.46875 13.625 8.46875C13.3665 8.46875 13.1562 8.25847 13.1562 8C13.1562 7.74153 13.3665 7.53125 13.625 7.53125ZM15.0625 1.875H14.125V0.9375H15.0625V1.875Z" fill="white"/>
<path d="M12.14 9.61498L8.39 3.99001C8.38987 3.98983 8.38972 3.98964 8.38959 3.98942C8.38825 3.98742 8.38678 3.98551 8.3854 3.98354C8.37897 3.9742 8.37218 3.9652 8.36512 3.95642C8.16759 3.71098 7.79147 3.72754 7.61459 3.98354C7.61322 3.98551 7.61175 3.98742 7.6104 3.98942C7.61028 3.98964 7.61012 3.98979 7.61 3.99001L3.86 9.61501C3.73603 9.80092 3.76056 10.0485 3.91856 10.2065C4.85378 11.1417 5.44903 12.3642 5.61118 13.6721C5.5384 13.731 5.46812 13.794 5.4015 13.8622C4.96122 14.3125 4.71875 14.9053 4.71875 15.5313C4.71875 15.7901 4.92862 16 5.1875 16H10.8125C11.0714 16 11.2812 15.7901 11.2812 15.5313C11.2812 14.9053 11.0388 14.3125 10.5985 13.8621C10.5319 13.794 10.4616 13.7309 10.3888 13.6721C10.5509 12.3641 11.1462 11.1416 12.0814 10.2065C12.2394 10.0485 12.264 9.80089 12.14 9.61498ZM8 9.40626C8.25847 9.40626 8.46875 9.61654 8.46875 9.87501C8.46875 10.1335 8.25847 10.3438 8 10.3438C7.74153 10.3438 7.53125 10.1335 7.53125 9.87501C7.53125 9.61654 7.74153 9.40626 8 9.40626ZM5.73618 15.0625C5.93122 14.5052 6.4599 14.0938 7.0625 14.0938H8.9375C9.54009 14.0938 10.0688 14.5052 10.2638 15.0625H5.73618ZM9.50765 13.2276C9.32328 13.1805 9.13215 13.1563 8.9375 13.1563H7.0625C6.86784 13.1563 6.67672 13.1805 6.49234 13.2276C6.27297 11.9642 5.70325 10.7832 4.84703 9.82454L7.53125 5.7982V8.54942C6.98565 8.74292 6.59375 9.26395 6.59375 9.87504C6.59375 10.6505 7.22459 11.2813 8 11.2813C8.7754 11.2813 9.40625 10.6505 9.40625 9.87504C9.40625 9.26395 9.01434 8.74292 8.46875 8.54942V5.7982L11.153 9.82454C10.2967 10.7831 9.727 11.9642 9.50765 13.2276Z" fill="white"/>
</svg>
