<svg width="19" height="17" viewBox="0 0 19 17" fill="none" xmlns="http://www.w3.org/2000/svg">
<path d="M17.02 3.28008H13.9221V1.64004C13.9221 0.735722 13.1864 0 12.2821 0H1.64004C0.735722 0 0 0.735722 0 1.64004V12.0712L2.59538 9.47578H4.00898V11.8447C4.00898 12.749 4.74471 13.4848 5.64902 13.4848H15.3357L18.66 16.8091V4.92012C18.66 4.0158 17.9243 3.28008 17.02 3.28008ZM4.00898 4.92012V8.38242H2.14251L1.09336 9.43157V1.64004C1.09336 1.3386 1.3386 1.09336 1.64004 1.09336H12.2821C12.5835 1.09336 12.8287 1.3386 12.8287 1.64004V3.28008H5.64902C4.74471 3.28008 4.00898 4.0158 4.00898 4.92012ZM17.5666 14.1695L15.7886 12.3914H5.64902C5.34758 12.3914 5.10234 12.1462 5.10234 11.8447V4.92012C5.10234 4.61868 5.34758 4.37344 5.64902 4.37344H17.02C17.3214 4.37344 17.5666 4.61868 17.5666 4.92012V14.1695Z" fill="white"/>
<path d="M16.4733 6.56003H6.19568V7.65339H16.4733V6.56003Z" fill="white"/>
<path d="M14.2865 8.74677H6.19568V9.84012H14.2865V8.74677Z" fill="white"/>
</svg>
