<svg width="20" height="21" viewBox="0 0 22 23" fill="none" xmlns="http://www.w3.org/2000/svg">
<g clip-path="url(#clip0_196_2)">
<path d="M11.0001 0.5C4.9257 0.5 0 5.54299 0 11.7641C0 16.7409 3.15186 20.9631 7.52253 22.4526C8.07228 22.5568 8.27411 22.2082 8.27411 21.9107C8.27411 21.6421 8.26391 20.7548 8.25918 19.8136C5.19894 20.4949 4.55319 18.4845 4.55319 18.4845C4.05281 17.1826 3.33183 16.8364 3.33183 16.8364C2.33379 16.1373 3.40706 16.1516 3.40706 16.1516C4.51166 16.2311 5.09329 17.3124 5.09329 17.3124C6.07439 19.0344 7.66662 18.5366 8.29433 18.2488C8.39306 17.5207 8.67814 17.0238 8.99272 16.7425C6.54945 16.4577 3.98104 15.4919 3.98104 11.1758C3.98104 9.946 4.41075 8.94117 5.11442 8.15234C5.00021 7.86863 4.62369 6.72297 5.22098 5.17142C5.22098 5.17142 6.1447 4.86869 8.24679 6.32604C9.12424 6.07646 10.0653 5.9513 11.0001 5.94701C11.9349 5.9513 12.8767 6.07646 13.7558 6.32604C15.8553 4.86869 16.7777 5.17142 16.7777 5.17142C17.3765 6.72297 16.9998 7.86863 16.8856 8.15234C17.5909 8.94117 18.0177 9.946 18.0177 11.1758C18.0177 15.5021 15.4444 16.4547 12.9949 16.7336C13.3894 17.0831 13.741 17.7686 13.741 18.8195C13.741 20.3267 13.7283 21.5397 13.7283 21.9107C13.7283 22.2104 13.9263 22.5617 14.4838 22.4511C18.8521 20.96 22 16.7392 22 11.7641C22 5.54299 17.075 0.5 11.0001 0.5ZM4.11989 16.5459C4.09566 16.6019 4.00969 16.6187 3.93136 16.5803C3.85157 16.5435 3.80676 16.4672 3.83263 16.4111C3.85631 16.3534 3.94247 16.3374 4.02207 16.376C4.10204 16.4128 4.14758 16.4898 4.11989 16.5459ZM4.66097 17.0403C4.60851 17.0901 4.50596 17.067 4.43637 16.9883C4.36442 16.9098 4.35094 16.8047 4.40413 16.7542C4.45823 16.7044 4.55769 16.7277 4.62983 16.8062C4.70178 16.8857 4.7158 16.99 4.66097 17.0403ZM5.03218 17.6729C4.96478 17.7208 4.85457 17.6759 4.78645 17.5757C4.71905 17.4755 4.71905 17.3554 4.7879 17.3073C4.85621 17.2592 4.96478 17.3024 5.03382 17.4019C5.10103 17.5037 5.10103 17.6238 5.03218 17.6729ZM5.65996 18.4055C5.59967 18.4735 5.47125 18.4553 5.37725 18.3624C5.28107 18.2715 5.2543 18.1426 5.31477 18.0746C5.3758 18.0063 5.50495 18.0255 5.59967 18.1177C5.69512 18.2083 5.72426 18.3381 5.65996 18.4055ZM6.47131 18.6528C6.44472 18.741 6.32103 18.7811 6.19643 18.7436C6.07202 18.705 5.9906 18.6017 6.01574 18.5125C6.0416 18.4237 6.16583 18.3819 6.29134 18.422C6.41557 18.4605 6.49718 18.5631 6.47131 18.6528ZM7.39466 18.7577C7.39776 18.8506 7.2921 18.9276 7.16132 18.9293C7.0298 18.9323 6.92342 18.8571 6.92196 18.7657C6.92196 18.6719 7.02525 18.5956 7.15676 18.5933C7.28755 18.5907 7.39466 18.6653 7.39466 18.7577ZM8.30175 18.7221C8.31741 18.8127 8.22652 18.9058 8.09664 18.9306C7.96895 18.9545 7.85073 18.8985 7.83451 18.8086C7.81867 18.7157 7.9112 18.6227 8.03871 18.5986C8.16877 18.5755 8.28517 18.6299 8.30175 18.7221Z" fill="white"/>
</g>
<defs>
<clipPath id="clip0_196_2">
<rect width="22" height="22" fill="white" transform="translate(0 0.5)"/>
</clipPath>
</defs>
</svg>
