<svg width="275" height="285" id="messanger-bg" viewBox="0 0 275 285" fill="none" xmlns="http://www.w3.org/2000/svg">
<g clip-path="url(#clip0_98_157)">
<g class="left_part">
  <path d="M7.11 73.02H45.8379L51.2992 77.98L56.7605 83.44C61.5373 88.209 67.18 86.7315 67.18 79.87V73.02H81.11C85.4449 73.02 87.67 72.2985 87.67 67.96V5.55C87.67 1.21149 86.6454 0 82.31 0H5.61C1.27512 0 0 1.72149 0 6.06V18.23C0 20.462 0.305099 22.0234 2.53 22.0234C4.7549 22.0234 5.06 20.462 5.06 18.23V5.05H82.6129V67.9568H66.1455C63.9206 67.9568 62.1178 69.7653 62.1178 71.9973V80.8915L50.3414 69.1334C49.5863 68.3802 48.5649 67.9568 47.5 67.9568H5.06V33.85C5.06 31.618 4.7549 30.0571 2.53 30.0571C0.305099 30.0571 0 31.618 0 33.85V68.1701C0 72.5086 2.77459 73.02 7.11 73.02Z" fill="#F6CE67" fill-opacity="0.42"/>
  <path d="M60.0103 39.4834C61.0424 41.0912 63.273 41.5093 64.8564 40.4924C66.5056 39.4325 66.9558 37.1258 65.8461 35.5123C64.8174 34.0159 62.749 33.5544 61.1802 34.4586C59.4421 35.4604 58.8851 37.8105 60.0103 39.4834Z" fill="#F6CE67" fill-opacity="0.42"/>
  <path d="M41.9022 39.4813C42.9415 41.0995 45.2128 41.5208 46.7929 40.4626C48.4459 39.3559 48.8433 37.0272 47.6737 35.4246C46.5841 33.9319 44.4684 33.5507 42.9217 34.5495C41.2988 35.5977 40.8178 37.8693 41.9022 39.4813Z" fill="#F6CE67" fill-opacity="0.42"/>
  <path d="M23.7934 39.4799C24.8859 41.122 27.1781 41.5394 28.777 40.3925C30.3175 39.287 30.7101 37.0742 29.6279 35.5103C28.5424 33.9422 26.3559 33.5225 24.7712 34.5798C23.1832 35.6395 22.7168 37.8854 23.7934 39.4799Z" fill="#F6CE67" fill-opacity="0.42"/>
</g>
<path fill-rule="evenodd" clip-rule="evenodd" d="M245.779 251.931L247.437 248.626C248.273 246.958 248.747 245.081 248.747 243.091V124.035C248.747 117.221 243.218 111.674 236.426 111.674H194.709L194.132 110.254C186.965 92.6118 169.686 80.1526 149.57 80.1526H140.79V63.7942L142.449 63.3275C147.786 61.8266 151.706 56.9037 151.706 51.0894C151.706 44.0821 146.02 38.3783 139.035 38.3783C132.05 38.3783 126.365 44.0821 126.365 51.0894C126.365 56.9037 130.284 61.8266 135.621 63.3275L137.28 63.7942V80.1526H127.192C107.076 80.1526 89.7969 92.6118 82.6297 110.254L82.053 111.674H40.3367C33.5451 111.674 28.0157 117.221 28.0157 124.035V243.091C28.0157 245.081 28.4891 246.958 29.3256 248.626L30.9836 251.931H10.2132C6.33383 251.931 3.175 255.1 3.175 258.991V259.032L3.17357 259.072C2.81379 269.245 10.5783 278.139 20.7798 278.139H202.832C203.561 278.139 203.876 277.878 204.054 277.636C204.286 277.318 204.444 276.786 204.379 276.158C204.315 275.53 204.055 275.05 203.769 274.796C203.554 274.604 203.191 274.408 202.452 274.567L202.216 274.618H20.7798C11.965 274.618 6.27116 266.875 6.68575 258.915C6.72626 256.995 8.29242 255.452 10.2132 255.452H266.549C268.47 255.452 270.036 256.995 270.076 258.915C270.492 266.876 264.797 274.618 255.982 274.618H219.542L219.304 274.566C218.728 274.441 218.352 274.59 218.053 274.849C217.697 275.157 217.396 275.692 217.298 276.311C217.2 276.934 217.339 277.396 217.521 277.644C217.649 277.818 217.972 278.139 218.934 278.139H255.982C266.072 278.139 274.132 269.204 273.591 259.114L273.587 259.052V258.991C273.587 255.1 270.428 251.931 266.549 251.931H245.779ZM267.805 258.991C267.805 258.297 267.241 257.732 266.549 257.732H10.2132C9.52101 257.732 8.95767 258.297 8.95767 258.991C8.57531 265.906 13.4832 272.338 20.7798 272.338H201.975C207.592 271.129 208.512 280.419 202.832 280.419H20.7798C9.16067 280.419 0.501648 270.319 0.902269 258.991C0.902269 253.841 5.07873 249.651 10.2132 249.651H27.2955C26.9304 248.923 26.6236 248.161 26.3816 247.371C25.967 246.017 25.743 244.58 25.743 243.091V124.035C25.743 115.962 32.2899 109.394 40.3367 109.394H80.5251C88.0279 90.9253 106.118 77.8726 127.192 77.8726H135.007V65.5229C128.718 63.7542 124.092 57.9557 124.092 51.0894C124.092 42.8229 130.795 36.0983 139.035 36.0983C147.275 36.0983 153.979 42.8229 153.979 51.0894C153.979 57.9557 149.352 63.7542 143.063 65.5229V77.8726H149.57C170.644 77.8726 188.734 90.9253 196.237 109.394H236.426C244.473 109.394 251.019 115.962 251.019 124.035V243.091C251.019 244.58 250.795 246.017 250.381 247.371C250.139 248.161 249.832 248.923 249.467 249.651H266.549C271.683 249.651 275.86 253.841 275.86 258.991C276.468 270.321 267.44 280.419 255.982 280.419H218.934C212.675 280.419 214.562 271.205 219.785 272.338H255.982C263.279 272.338 268.187 265.907 267.805 258.991ZM105.479 249.662H82.6039V205.924C82.6039 189.497 95.9219 176.135 112.297 176.135H164.466C180.84 176.135 194.159 189.496 194.159 205.924L194.084 249.647L171.284 249.662V226.396C171.284 208.197 156.522 193.388 138.381 193.388C120.241 193.388 105.479 208.197 105.479 226.396V249.662ZM166.833 176.229L109.931 176.229V155.818H166.833V176.229ZM80.8429 115.195L80.214 117.468L40.3372 117.468C37.2594 117.468 33.7917 120.956 33.7917 124.034V243.091C33.7917 246.174 37.269 249.662 40.3372 249.662H236.428C239.496 249.639 242.974 246.174 242.974 243.096V124.034C242.974 120.956 239.496 117.468 236.428 117.468H196.328L195.919 115.196H236.426C241.286 115.196 245.237 119.159 245.237 124.035V243.092C245.237 247.967 241.286 251.931 236.426 251.931H40.3367C35.4764 251.931 31.5256 247.967 31.5256 243.092V124.035C31.5256 119.159 35.4763 115.195 40.3367 115.195H80.8429ZM129.874 51.0899C129.874 46.0207 133.982 41.9 139.035 41.9C144.088 41.9 148.195 46.0207 148.195 51.0899C148.195 56.1591 144.088 60.2799 139.035 60.2799C133.982 60.2799 129.874 56.1591 129.874 51.0899ZM127.192 83.6737H149.57C174.158 83.6737 194.158 103.738 194.158 128.405C194.158 143.523 181.902 155.818 166.833 155.818H164.466H112.297H109.931C94.8608 155.818 82.6049 143.522 82.6049 128.405C82.6038 103.738 102.604 83.6737 127.192 83.6737ZM139.035 44.18C135.237 44.18 132.147 47.2799 132.147 51.0899C132.147 54.8999 135.237 57.9999 139.035 57.9999C142.833 57.9999 145.923 54.8999 145.923 51.0899C145.923 47.2799 142.833 44.18 139.035 44.18ZM103.206 226.396C103.206 206.938 118.985 191.108 138.381 191.108C157.777 191.108 173.556 206.938 173.557 226.396V249.66L191.767 249.648L191.886 205.924C191.886 190.755 179.585 178.415 164.466 178.415H112.297C97.1772 178.415 84.8766 190.756 84.8766 205.924V249.662H103.206V226.396ZM164.466 176.135V155.818L112.297 155.996V176.135H164.466ZM149.57 85.9537H127.192C103.859 85.9537 84.8766 104.997 84.8777 128.405C84.8777 142.263 96.116 153.538 109.931 153.538H166.833C180.647 153.538 191.886 142.263 191.886 128.405C191.886 104.997 172.903 85.9537 149.57 85.9537Z" fill="white" fill-opacity="0.2"/>
<path fill-rule="evenodd" clip-rule="evenodd" d="M180.654 123.994L180.654 123.991L180.656 123.823V123.817C180.655 121.356 180.467 118.883 180.097 116.466L182.343 116.12C182.732 118.654 182.928 121.246 182.928 123.823L182.927 124.004C182.888 133 175.469 140.343 166.392 140.343H108.566C99.4888 140.343 92.0703 133.001 92.0306 123.975L92.03 123.823C92.03 121.246 92.2266 118.654 92.6149 116.12C93.8608 107.992 100.733 102.092 108.957 102.092H166.002C174.226 102.092 181.098 107.992 182.343 116.12L180.097 116.466C179.023 109.456 173.109 104.372 166.002 104.372H108.957C101.85 104.372 95.9358 109.456 94.8612 116.467C94.4908 118.883 94.303 121.358 94.3028 123.819L94.3028 123.823L94.3033 123.965C94.3374 131.716 100.721 138.063 108.566 138.063H166.392C174.24 138.063 180.621 131.713 180.654 123.994Z" fill="white" fill-opacity="0.2"/>
  <g class="right_part">
    <path opacity="0.4" d="M272.618 44.6834C270.705 41.4871 267.306 39.4627 263.588 39.4627C259.126 39.4627 254.983 42.446 253.602 46.7078L252.964 48.6256H234.161V21.9893L236.179 21.3501C238.729 20.6043 240.854 18.8995 242.129 16.6621C244.041 13.4658 244.041 9.41705 242.129 6.2207C240.216 3.02435 236.817 1 233.099 1C229.38 1 225.875 3.02435 224.069 6.2207C222.157 9.41705 222.157 13.3592 224.069 16.6621C225.344 18.793 227.362 20.4977 229.805 21.3501L231.718 21.9893V64.5008C231.718 66.8447 229.805 68.656 227.574 68.656H203.99V42.2329L205.903 41.5936C208.346 40.7412 210.471 39.1431 211.746 36.9056C213.658 33.7093 213.658 29.7671 211.746 26.4642C209.833 23.2679 206.434 21.2435 202.716 21.2435C198.997 21.2435 195.492 23.2679 193.686 26.4642C191.774 29.6606 191.774 33.6027 193.686 36.7991C194.961 39.0365 197.085 40.7412 199.529 41.4871L201.441 42.1263V68.4429H183.275C182.531 68.4429 182 68.9756 182 69.7215C182 70.0411 182.106 70.3607 182.425 70.5738C182.637 70.7869 182.956 71 183.381 71H227.681C231.399 71 234.373 68.0167 234.373 64.2877V51.1826H253.177L253.814 53.1005C255.195 57.2557 259.338 60.3455 263.8 60.3455C267.518 60.3455 271.024 58.3212 272.83 55.1248C274.424 51.9285 274.424 47.9863 272.618 44.6834ZM194.748 31.7915C194.748 27.4231 198.254 23.9072 202.609 23.9072C206.965 23.9072 210.471 27.4231 210.471 31.7915C210.471 36.1598 206.965 39.6758 202.609 39.6758C198.254 39.6758 194.748 36.1598 194.748 31.7915ZM232.992 19.4323C230.23 19.4323 227.574 17.9406 226.193 15.4901C224.812 13.0396 224.812 10.0563 226.193 7.60578C227.574 5.15525 230.23 3.66362 232.992 3.66362C235.754 3.66362 238.41 5.15525 239.791 7.60578C241.172 10.0563 241.172 13.0396 239.791 15.4901C238.41 17.8341 235.861 19.4323 232.992 19.4323ZM270.387 53.8463C269.006 56.2968 266.35 57.7884 263.588 57.7884C260.826 57.7884 258.17 56.2968 256.789 53.8463C255.408 51.3957 255.408 48.4125 256.789 45.9619C258.17 43.5114 260.826 42.0198 263.588 42.0198C266.35 42.0198 269.006 43.5114 270.387 45.9619C271.768 48.4125 271.768 51.3957 270.387 53.8463Z" fill="#F6CE67" stroke="#F6CE67" stroke-width="2" stroke-miterlimit="10"/>
  </g>
</g>
<defs>
<clipPath id="clip0_98_157">
<rect width="275" height="285" fill="white"/>
</clipPath>
</defs>
</svg>
