<svg width="16" height="16" viewBox="0 0 16 16" fill="none" xmlns="http://www.w3.org/2000/svg">
<g clip-path="url(#clip0_190_83)">
<path d="M11.2887 8.63728L10.3203 7.66884L12.8797 5.10945L13.2111 5.44088C13.4258 5.65551 13.787 5.61323 13.9445 5.3506L15.9332 2.03615C16.0439 1.85171 16.0148 1.61562 15.8627 1.46355L14.5369 0.137778C14.3848 -0.0143148 14.1487 -0.0433459 13.9643 0.0672787L10.6498 2.05596C10.3883 2.2129 10.3443 2.57408 10.5596 2.78933L10.891 3.12077L8.3316 5.68016L7.36317 4.71173C7.70404 3.43805 7.35635 2.05318 6.3922 1.08899C5.18617 -0.117002 3.38078 -0.307876 1.96888 0.452652C1.83844 0.522933 1.74891 0.650714 1.72738 0.797307C1.70588 0.9439 1.75494 1.09202 1.85972 1.19681L3.61884 2.95592C3.80162 3.1387 3.80162 3.43608 3.61884 3.6188C3.43606 3.80158 3.13871 3.80161 2.95593 3.6188L1.19682 1.85965C1.09203 1.75487 0.943879 1.70577 0.797317 1.7273C0.650724 1.7488 0.522943 1.83837 0.452662 1.9688C-0.304991 3.37542 -0.121054 5.18201 1.08907 6.3921C2.05109 7.35413 3.43524 7.70475 4.7118 7.36309L5.01724 7.6685L0.687536 11.9983C-0.228898 12.9147 -0.22946 14.3959 0.687536 15.3129C1.60138 16.2267 3.08828 16.2268 4.00215 15.3129L8.33182 10.9831L8.63732 11.2886C8.29644 12.5623 8.64413 13.9472 9.60828 14.9113C10.8143 16.1174 12.6197 16.3082 14.0316 15.5477C14.162 15.4774 14.2516 15.3497 14.2731 15.2031C14.2946 15.0565 14.2455 14.9083 14.1408 14.8036L12.3816 13.0444C12.1989 12.8617 12.1989 12.5643 12.3816 12.3816C12.5644 12.1988 12.8618 12.1988 13.0446 12.3816L14.8037 14.1407C14.9084 14.2455 15.0566 14.2945 15.2032 14.273C15.3498 14.2515 15.4775 14.162 15.5478 14.0315C16.3055 12.6249 16.1216 10.8183 14.9114 9.60824C13.9494 8.64625 12.5653 8.29562 11.2887 8.63728ZM14.1328 1.05946L14.941 1.86765L13.4495 4.35345L11.647 2.55096L14.1328 1.05946ZM11.5539 3.78367L12.2168 4.44654L9.65738 7.00594L8.99447 6.34307L11.5539 3.78367ZM3.33924 14.6501C2.79093 15.1984 1.89875 15.1984 1.35041 14.6501C0.800255 14.0999 0.799911 13.2117 1.35041 12.6612L5.68008 8.33143L7.66892 10.3203L3.33924 14.6501ZM14.9665 12.9778L13.7075 11.7187C13.1592 11.1705 12.2671 11.1705 11.7188 11.7187C11.1705 12.267 11.1705 13.1591 11.7188 13.7074L12.9779 14.9665C12.0212 15.2277 10.993 14.9703 10.2712 14.2485C9.50725 13.4845 9.24785 12.3328 9.61038 11.3144C9.67106 11.1439 9.62819 10.9537 9.50022 10.8257L5.17471 6.50022C5.04702 6.37254 4.85696 6.32925 4.68608 6.39007C3.66759 6.7526 2.5159 6.49316 1.75194 5.72923C1.03013 5.00742 0.772786 3.97923 1.03397 3.02261L2.29306 4.2817C2.84131 4.82995 3.73343 4.82992 4.28174 4.2817C4.82999 3.73345 4.82999 2.84133 4.28174 2.29302L3.02265 1.03393C3.97924 0.772682 5.00749 1.03009 5.7293 1.7519C6.49326 2.51586 6.75267 3.66758 6.39014 4.68604C6.32945 4.85654 6.37233 5.04673 6.50029 5.17467L10.8258 9.50015C10.9537 9.62812 11.1439 9.67096 11.3144 9.6103C12.3328 9.24777 13.4846 9.50721 14.2485 10.2711C14.9704 10.993 15.2277 12.0212 14.9665 12.9778Z" fill="white"/>
<path d="M6.09464 9.99946C5.91157 9.81642 5.61482 9.81642 5.43176 9.99946L2.56745 12.8639C2.38442 13.0469 2.38442 13.3437 2.56745 13.5267C2.75054 13.7098 3.04726 13.7098 3.23032 13.5267L6.09461 10.6623C6.27764 10.4793 6.27764 10.1825 6.09464 9.99946Z" fill="white"/>
</g>
<defs>
<clipPath id="clip0_190_83">
<rect width="16" height="16" fill="white"/>
</clipPath>
</defs>
</svg>
