<?xml version="1.0" encoding="UTF-8"?>
<!DOCTYPE svg PUBLIC "-//W3C//DTD SVG 1.1//EN" "http://www.w3.org/Graphics/SVG/1.1/DTD/svg11.dtd">
<!-- Creator: CorelDRAW 2020 (64-Bit) -->
<svg xmlns="http://www.w3.org/2000/svg" xml:space="preserve" width="72.8088mm" height="74.5332mm" version="1.1" style="shape-rendering:geometricPrecision; text-rendering:geometricPrecision; image-rendering:optimizeQuality; fill-rule:evenodd; clip-rule:evenodd"
viewBox="0 0 9030.66 9244.54"
 xmlns:xlink="http://www.w3.org/1999/xlink"
 xmlns:xodm="http://www.corel.com/coreldraw/odm/2003">
 <defs>
  <style type="text/css">
   <![CDATA[
    .str1 {stroke:white;stroke-width:84.01;stroke-miterlimit:22.9256}
    .str0 {stroke:#D33833;stroke-width:201.52;stroke-miterlimit:22.9256}
    .fil11 {fill:none;fill-rule:nonzero}
    .fil16 {fill:#3367D6}
    .fil15 {fill:#5B85DF}
    .fil14 {fill:#85A3E7}
    .fil13 {fill:#1D1919;fill-rule:nonzero}
    .fil0 {fill:#2088FF;fill-rule:nonzero}
    .fil4 {fill:#231F20;fill-rule:nonzero}
    .fil6 {fill:#335061;fill-rule:nonzero}
    .fil10 {fill:#49728B;fill-rule:nonzero}
    .fil7 {fill:#6D6B6D;fill-rule:nonzero}
    .fil12 {fill:#81B0C4;fill-rule:nonzero}
    .fil2 {fill:#D33833;fill-rule:nonzero}
    .fil8 {fill:#DCD9D8;fill-rule:nonzero}
    .fil3 {fill:#EF3D3A;fill-rule:nonzero}
    .fil5 {fill:#F0D6B7;fill-rule:nonzero}
    .fil9 {fill:#F7E4CD;fill-rule:nonzero}
    .fil1 {fill:white;fill-rule:nonzero}
   ]]>
  </style>
 </defs>
 <g id="Warstwa_x0020_1">
  <metadata id="CorelCorpID_0Corel-Layer"/>
  <g id="_2464578245584">
   <g>
    <path class="fil0" d="M2936.57 5010.74l-1700.36 0c-682.74,0 -1236.21,561.57 -1236.21,1254.29l0 1725.25c0,692.7 553.47,1254.25 1236.21,1254.25l1700.36 0c682.74,0 1236.18,-561.57 1236.18,-1254.25l0 -1725.25c0,-692.73 -553.46,-1254.29 -1236.18,-1254.29z"/>
    <path class="fil1" d="M3216.3 6968.68c-29.05,-43.59 -67.65,-79.78 -112.78,-105.7 -45.12,-25.94 -95.57,-40.91 -147.35,-43.75 -51.78,-2.83 -103.52,6.52 -151.15,27.34 -47.63,20.84 -89.84,52.54 -123.38,92.7 -22.78,24.87 -41.95,52.94 -56.92,83.29 -14.83,29.25 -26.33,60.11 -34.31,92.02l-206.64 0c-4.56,-7.74 -7.88,-16.17 -9.81,-24.97 -28.12,-112.04 -97.02,-192.11 -201.52,-236.26 -201.16,-85.02 -419.52,27.73 -475.78,242.71 -3.68,14.11 -0.94,30.09 -24.5,33.38 -97.51,13.62 -207.59,-43.03 -253.83,-133.33 -31.16,-60.92 -29.51,-66.2 37.47,-74.74 278.07,-35.44 505.13,-321.89 409.01,-654.13 -69.62,-240.69 -329.62,-396.89 -573.13,-345.69 -229.56,48.24 -391.63,242.45 -403.65,483.62 -11.04,221.91 140.22,433.98 359.86,499.9 33.08,9.95 40.57,24.77 40.41,57.01 -1.14,224.98 -2.15,449.99 0.27,674.91 2.24,208.06 152.66,377.43 354.2,399.37 37.98,4.13 50.83,17.72 60.35,53.5 37.54,141.05 162.38,241.37 307.76,252.55 69.72,5.68 139.52,-10.23 200.18,-45.62 60.63,-35.4 109.26,-88.6 139.49,-152.61 88.86,-193.27 0.84,-413.96 -194.25,-487.09 -193.23,-72.46 -403.51,39.84 -456.86,246.79 -9.13,35.41 -24.46,37.57 -53.62,32.69 -149.74,-25.17 -253.73,-146.23 -257.9,-304.15 -1.69,-63.39 -0.41,-126.9 -0.42,-190.33 -0.02,-100.53 0,-201.06 0,-313.18 48.21,37.52 88.82,65.74 136.57,82.15 47.48,15.39 97.34,21.82 147.1,18.98 23.99,-0.84 21.97,17.48 25.74,31.76 25.72,98.04 79.96,174.49 167.36,224.87 46.35,27.09 98.23,42.92 151.6,46.29 53.38,3.37 106.8,-5.78 156.11,-26.82 49.32,-21.04 93.16,-53.36 128.11,-94.41 34.96,-41.08 60.11,-89.79 73.45,-142.33 1.96,-8.67 5.31,-16.93 9.95,-24.45l210.09 0c1.34,11.52 3.72,22.91 7.13,33.97 43.39,158.54 186.67,259.61 350.5,253.97 131.44,-4.53 279.54,-88.51 324.83,-276.16 11.68,-49.53 12.35,-101.05 2.03,-150.86 -10.34,-49.81 -31.45,-96.68 -61.81,-137.19l0 0 0.01 0.01zm-1178.94 769.26c32.74,-0.3 65.24,6 95.57,18.58 30.33,12.54 57.89,31.12 81.07,54.6 23.18,23.47 41.53,51.39 53.95,82.15 12.43,30.75 18.69,63.73 18.43,96.93 0.16,50.12 -14.35,99.11 -41.67,140.85 -27.34,41.71 -66.25,74.27 -111.83,93.53 -45.58,19.26 -95.77,24.35 -144.2,14.64 -48.43,-9.69 -92.94,-33.77 -127.88,-69.15 -34.94,-35.41 -58.74,-80.55 -68.39,-129.66 -9.64,-49.12 -4.69,-100.07 14.21,-146.32 18.9,-46.28 50.93,-85.82 92.01,-113.61 41.07,-27.8 89.34,-42.61 138.73,-42.53l0 0zm-1046.59 -1320.85c0.84,-106.66 43.25,-208.62 117.94,-283.67 74.7,-75.05 175.63,-117.06 280.75,-116.89 105.12,0.2 205.91,42.56 280.34,117.87 74.42,75.32 116.47,177.45 116.96,284.1 0.26,53.27 -9.9,106.04 -29.83,155.3 -19.94,49.25 -49.28,94.02 -86.35,131.72 -37.05,37.71 -81.09,67.6 -129.58,87.94 -48.48,20.38 -100.47,30.81 -152.94,30.71 -52.48,-0.1 -104.42,-10.69 -152.85,-31.24 -48.41,-20.54 -92.34,-50.59 -129.28,-88.44 -36.92,-37.84 -66.11,-82.7 -85.87,-132.02 -19.78,-49.33 -29.73,-102.13 -29.31,-155.39l0 0 0.01 0.01zm1044.87 1014.64c-49.09,-0.46 -96.94,-15.65 -137.53,-43.68 -40.57,-28.03 -72.06,-67.63 -90.48,-113.81 -18.42,-46.16 -22.93,-96.84 -12.99,-145.6 9.94,-48.77 33.9,-93.47 68.85,-128.45 34.96,-34.95 79.34,-58.64 127.55,-68.03 48.21,-9.39 98.07,-4.07 143.29,15.26 45.25,19.34 83.82,51.86 110.86,93.4 27.05,41.59 41.35,90.36 41.1,140.13 -0.14,33.22 -6.72,66.06 -19.41,96.65 -12.69,30.62 -31.22,58.34 -54.5,81.69 -23.31,23.29 -50.92,41.69 -81.25,54.14 -30.33,12.44 -62.79,18.64 -95.51,18.32l0 0zm790.24 -24.94c-55.42,-26.99 -99.13,-73.68 -122.79,-131.2 -23.67,-57.53 -25.65,-121.92 -5.54,-180.83 20.09,-58.94 60.85,-108.29 114.51,-138.68 53.66,-30.38 116.47,-39.72 176.45,-26.16 59.97,13.56 112.94,49.07 148.8,99.67 35.86,50.63 52.12,112.88 45.64,174.91 -6.45,61.99 -35.2,119.42 -80.68,161.32 -45.51,41.89 -104.62,65.34 -166.07,65.86 -2.32,0 -4.63,-0.06 -6.93,-0.14 -35.75,-1.14 -70.91,-9.55 -103.37,-24.81l0 0.04 -0.01 0.01z"/>
    <path class="fil1" d="M1593.47 6334.28c-81.72,-54.7 -164.58,-107.66 -248.56,-158.91 -74.08,-45.38 -153.84,0.43 -155.93,88.39 -1.23,51.8 -0.22,103.7 -0.16,155.59 0.06,53.28 -0.93,106.62 0.29,159.88 1.9,82.67 80.09,130.12 149.93,88.87 85.82,-50.72 170.32,-103.65 253.5,-158.94 69.23,-45.89 69.41,-129.03 0.94,-174.87l-0.01 0 0.01 0zm-68.04 98.77c-71.32,44.73 -142.61,89.49 -213.87,134.31 -12.35,7.78 -21.92,8.53 -21.94,-10.11 -0.16,-96.16 -0.07,-192.28 -0.07,-297.52 83.56,53.26 160.05,101.97 236.44,150.8 11.57,7.4 11.22,15.12 -0.56,22.51l0 0zm410.92 1606.44c30.24,-2 48.68,-19.32 49.84,-48.14 0.72,-6.45 0.06,-13.02 -1.96,-19.23 -2.02,-6.21 -5.32,-11.88 -9.71,-16.68 -4.38,-4.79 -9.72,-8.52 -15.68,-11.03 -5.94,-2.49 -12.35,-3.63 -18.78,-3.37 -31.65,-1.24 -50.65,16.66 -51.11,49.23 -0.43,31.07 18.99,45.41 47.38,49.22l0.02 0zm202.56 -0.62c29.25,-4.37 47.99,-20.32 46.43,-51.32 -1.53,-30.52 -20.6,-47.88 -50.62,-46.46 -29.76,1.4 -48.03,20.11 -46.79,50.57 1.24,30.47 21.11,45.45 50.98,47.22l0 0zm926.31 -887.6c11.41,-11.55 20.61,-23.95 19.35,-42.8 0.6,-9.25 -1.69,-18.44 -6.52,-26.32 -4.84,-7.84 -11.98,-13.98 -20.44,-17.49 -8.87,-4.89 -19.06,-6.65 -29.04,-5.05 -9.97,1.66 -19.11,6.6 -26,14.11 -26.43,24.09 -51.57,49.59 -75.32,76.4 -26.92,32.07 -49.09,47.16 -82.08,5.48 -19.4,-24.48 -48.73,-24 -71.27,-0.1 -21.18,22.44 -17.75,47.98 1.8,69.87 20.94,23.49 43.32,45.78 66.13,67.44 31.57,29.95 53.02,30.03 84.57,-1.04 46.87,-46.19 92.54,-93.64 138.83,-140.49l0 0 0 -0.01zm-903.53 -85.58c-8.58,-5.38 -18.7,-7.71 -28.74,-6.6 -10.03,1.12 -19.42,5.62 -26.64,12.8 -25.59,22.78 -49.95,46.93 -72.97,72.4 -27.96,31.8 -51.86,56.67 -89.34,9.07 -18.31,-23.27 -47.01,-19.98 -67.91,1.67 -21.33,22.09 -19.15,47.45 0.79,69.53 22.03,24.38 45.78,47.19 69,70.44 27.77,27.77 54.97,25.04 81.6,-2 46.12,-46.86 92.28,-93.63 138.48,-140.39 12.35,-12.5 22.96,-25.76 21.04,-44.69 0.31,-8.79 -1.92,-17.45 -6.42,-24.93 -4.5,-7.52 -11.08,-13.49 -18.89,-17.28l0 0 0 -0.02z"/>
   </g>
   <g>
    <g>
     <path class="fil2" d="M8966.36 2846.36c0,1170.28 -927.5,2118.97 -2071.66,2118.97 -1144.1,0 -2071.59,-948.69 -2071.59,-2118.97 0,-1170.3 927.5,-2119 2071.59,-2119 1144.16,0 2071.66,948.72 2071.66,2119.02l0 -0.02zm0 0l0 0 0 0z"/>
    </g>
    <g>
     <path class="fil3" d="M4907.49 3371.18c0,0 -149.94,-2209.77 1886.19,-2272.88l-142.03 -236.77 -1104.84 370.91 -315.7 363.06 -276.26 528.76 -157.86 615.59 47.36 410.37 63.14 220.96zm0 0l0 0 0 0z"/>
    </g>
    <path class="fil4" d="M5475.82 1400.84c-363.49,371.9 -588.41,885.38 -588.41,1453.46 0,567.91 224.92,1081.46 588.41,1453.31 363.64,371.8 864.78,601.28 1418.87,601.28 554.08,0 1055.26,-229.45 1418.91,-601.28 363.45,-371.81 588.4,-885.37 588.4,-1453.31 0,-568.08 -224.98,-1081.56 -588.4,-1453.46 -363.64,-371.76 -864.83,-601.19 -1418.91,-601.25 -554.08,0.04 -1055.23,229.51 -1418.87,601.25l0 0zm-91.99 2996.71c-386.32,-395.04 -625.14,-941 -625.14,-1543.26 0,-602.36 238.8,-1148.27 625.1,-1543.36 386.19,-395.17 920.77,-640.08 1510.85,-640.01 590.08,-0.07 1124.74,244.83 1510.86,640.01 386.31,395.09 625.19,941.06 625.14,1543.36 0.06,602.24 -238.8,1148.18 -625.14,1543.26 -386.13,395.14 -920.78,640.03 -1510.86,640.03 -590.05,0 -1124.66,-244.9 -1510.83,-640.03l0.01 0z"/>
    <g>
     <path class="fil5" d="M7766.78 2858.12l-315.7 47.36 -426.16 47.36 -276.22 7.88 -268.33 -7.88 -205.16 -63.14 -181.51 -197.3 -142.07 -402.5 -31.57 -86.84 -189.42 -63.11 -110.46 -181.53 -78.96 -260.44 86.84 -228.88 205.2 -71.03 165.72 78.95 78.88 173.61 94.71 -15.79 31.57 -39.43 -31.57 -181.53 -7.88 -228.89 47.36 -315.66 -1.84 -180.32 143.91 -230.03 252.52 -181.53 441.94 -189.41 489.33 71.03 426.16 307.77 197.3 315.7 126.28 228.86 31.57 568.22 -94.71 489.32 -173.6 434.05 -165.76 228.88 -118.39 126.24 0.01 0.02zm0 0l0 0 0 0z"/>
    </g>
    <g>
     <path class="fil6" d="M7498.42 4223.42l-1128.53 47.36 0 189.42 94.67 662.92 -47.32 55.23 -789.22 -268.33 -55.23 -94.67 -78.92 -891.78 -181.51 -536.69 -39.48 -126.25 631.36 -434.01 197.3 -78.95 173.65 213.09 149.94 134.18 173.65 55.23 78.92 23.67 94.67 410.39 71.05 86.8 181.51 -63.11 -126.28 244.65 686.63 323.58 -86.84 47.36 0 -0.04 -0.02 -0.02zm0 0l0 0 0 0z"/>
    </g>
    <polygon class="fil7" points="5628.02,1469.12 5833.22,1398.07 5998.95,1477.03 6077.84,1650.62 6172.55,1634.83 6196.24,1540.12 6148.91,1358.64 6196.24,924.55 6156.77,687.8 6298.83,522.08 6606.63,277.44 6519.82,159.03 6085.72,372.13 5904.26,514.19 5801.66,735.14 5643.81,948.24 5596.46,1200.8 "/>
    <path class="fil8" d="M5951.56 727.26c0,0 118.4,-291.98 591.92,-434.05 473.52,-142.05 23.67,-102.61 23.67,-102.61l-513 197.34 -197.27 197.27 -86.84 157.86 181.51 -15.8 0 0 0.01 0zm-236.74 686.61c0,0 -165.72,-552.44 465.61,-631.37l-23.69 -94.7 -434.04 102.61 -126.28 410.37 31.57 268.32 86.84 -55.23z"/>
    <g>
     <path class="fil9" d="M5967.35 2147.83l103.34 -100.12c0,0 46.62,5.42 54.5,60.65 7.88,55.27 31.54,552.47 370.93,820.81 30.91,24.48 -252.55,-39.5 -252.55,-39.5l-252.57 -394.56 -23.65 -347.29 0 0.01zm1452.18 -149.93c0,0 18.41,-239.22 82.85,-220.83 64.39,18.39 64.39,82.83 64.39,82.83 0,0 -156.43,101.2 -147.24,138.01l0 -0.01zm655.02 -876.02c0,0 -130.15,27.47 -142.05,142.07 -11.98,114.61 142.05,23.67 165.72,15.75l-23.67 -157.83 0 0.01zm-954.94 7.9c0,0 -173.65,23.67 -173.65,134.17 0,110.45 197.3,102.6 252.57,55.24l-78.95 -189.41 0.02 0zm-1073.34 512.97c0,0 -299.91,-181.52 -331.45,-7.91 -31.6,173.65 -102.61,299.91 47.36,481.43l-102.61 -31.59 -94.71 -244.64 -31.59 -236.75 181.56 -189.43 205.16 15.8 118.36 94.7 7.91 118.39 0 0.01 0.01 0zm142.07 -497.18c0,0 134.15,-694.52 812.87,-828.66 558.8,-110.44 852.33,23.67 962.81,149.94 0,0 -497.17,-591.88 -970.69,-410.37 -473.54,181.48 -820.78,512.95 -812.91,726.05 13.46,362.91 7.91,363.06 7.91,363.06l0 0 0 -0.01zm1830.96 -599.82c0,0 -228.84,-7.88 -236.78,197.34 0,0 0,31.55 15.81,63.11 0,0 181.56,-205.19 291.96,-94.71l-71.01 -165.72 0.01 -0.01zm0 0l0 0 0 0z"/>
    </g>
    <path class="fil9" d="M7017.1 827.56c0,0 -39.38,-314.97 -307.87,-131.85 -173.65,118.39 -157.86,284.11 -126.31,315.66 31.6,31.6 23,95.15 47.06,51.52 23.99,-43.63 16.07,-185.7 102.91,-225.13 86.8,-39.47 229.13,-83.55 284.23,-10.21l-0.01 0z"/>
    <g>
     <path class="fil10" d="M6275.15 2960.69l-741.86 331.48c0,0 307.8,1223.26 149.94,1602.08l-110.46 -39.44 -7.9 -465.63 -205.16 -883.88 -86.84 -244.69 773.43 -520.85 228.86 220.94 0 0 -0.01 0zm76.26 676.62l105.24 128.37 0 473.52 -126.24 0c0,0 -15.83,-331.49 -15.83,-370.93 0,-39.44 15.83,-181.51 15.83,-181.51l21 -49.45zm2.65 672.94l-355.14 15.79 102.59 71.01 252.55 39.45 0 -126.25zm0 0l0 0 0 0z"/>
    </g>
    <polygon class="fil6" points="7569.45,4231.33 7861.48,4223.42 7932.5,4949.49 7632.62,4988.93 "/>
    <path class="fil6" d="M7648.36 4231.33l441.94 -23.69c0,0 181.51,-457.73 181.51,-481.43 0,-23.65 157.86,-662.92 157.86,-662.92l-355.12 -370.89 -71.05 -63.13 -189.39 189.41 0 733.96 -165.76 678.68 0 0.01z"/>
    <path class="fil10" d="M7845.66 4176.06l-276.22 55.27 39.44 221c102.59,47.36 276.26,-78.96 276.26,-78.96l-39.48 -197.3 0 -0.01zm7.9 -1381.06l552.48 410.39 15.75 -189.4 -418.25 -386.72 -149.98 165.72 0 0.01z"/>
    <polygon class="fil1" points="6627.95,5786.12 6464.56,5123.06 6383.31,4633.85 6369.89,4270.76 7109.38,4231.37 7569.45,4231.31 7527.63,5060.04 7598.69,5699.29 7590.76,5817.66 6991,5865.01 "/>
    <g>
     <path class="fil8" d="M7466.85 4223.42c0,0 -39.48,820.74 78.88,1404.79 0,0 -236.74,149.97 -584.01,189.39l662.94 -23.67 78.92 -47.36 -94.67 -1294.24 -23.7 -276.26 -118.36 47.36 0 -0.01zm0 0l0 0 0 0z"/>
    </g>
    <g>
     <path class="fil1" d="M7945.92 4886.45l307.77 -86.84 584.01 -31.57 86.84 -268.33 -157.88 -465.62 -181.47 -23.65 -252.57 78.88 -242.32 118.31 -128.61 -23.6 -100.27 39.38 84.48 663.03 0.02 0zm0 0l0 0 0 0z"/>
    </g>
    <g>
     <path class="fil8" d="M7940.37 4728.49c0,0 205.16,-94.67 236.74,-86.76l-86.81 -434.09 102.59 -39.42c0,0 71.06,410.36 71.06,457.68 0,0 441.94,23.7 481.42,23.7 0,0 94.67,-181.5 71.01,-370.92l86.81 252.54 7.9 142.03 -126.28 189.42 -142.07 31.57 -236.77 -7.88 -78.95 -102.57 -276.18 39.41 -86.84 31.6 -23.65 -126.31 0.01 0zm0 0l0 0 0 0z"/>
    </g>
    <path class="fil1" d="M7630.21 4168.26l-173.61 -441.92 -181.51 -260.44c0,0 39.45,-110.5 94.67,-110.5l181.56 0 173.61 63.14 -15.75 291.96 -78.96 457.73 -0.01 0.02z"/>
    <g>
     <path class="fil8" d="M7664.17 4018.27c0,0 -220.96,-426.16 -220.96,-489.31 0,0 39.44,-94.71 94.71,-71.01 55.23,23.65 173.61,86.76 173.61,86.76l0 -149.91 -268.32 -55.29 -181.56 23.69 307.8 726.07 63.17 7.91 31.54 -78.92 0.01 0zm0 0l0 0 0 0z"/>
    </g>
    <g>
     <path class="fil1" d="M6698.97 2976.58l-218.63 -23.76 -205.2 -63.14 0 71.03 100.29 110.56 315.66 142.05 7.88 -236.74zm0 0l0 0 0 0z"/>
    </g>
    <path class="fil8" d="M6346.23 3000.26c0,0 244.6,102.6 323.58,78.92l7.81 94.61 -220.93 -47.26 -134.15 -94.71 23.69 -31.57z"/>
    <g>
     <path class="fil2" d="M7945.05 3382.27c-133.91,-3.93 -254.89,-19.85 -360.82,-49.71 7.18,-43.42 -6.3,-86.05 4.56,-117.35 29.49,-21.26 79.02,-20.92 123.62,-25.9 -38.64,-18.99 -92.81,-26.47 -137.34,-15.54 -1.08,-30.13 -14.61,-48.79 -22.78,-72.39 75.28,-26.9 253.01,-203.05 353.01,-144.7 47.65,27.75 67.9,186.22 71.57,263.27 3.09,63.98 -5.77,128.46 -31.78,162.33l-0.04 0 0 -0.02zm0 0l0 0 0 0z"/>
    </g>
    <path class="fil11 str0" d="M7945.05 3382.27c-133.91,-3.93 -254.89,-19.85 -360.82,-49.71 7.18,-43.42 -6.3,-86.05 4.56,-117.35 29.49,-21.26 79.02,-20.92 123.62,-25.9 -38.64,-18.99 -92.81,-26.47 -137.34,-15.54 -1.08,-30.13 -14.61,-48.79 -22.78,-72.39 75.28,-26.9 253.01,-203.05 353.01,-144.7 47.65,27.75 67.9,186.22 71.57,263.27 3.09,63.98 -5.77,128.46 -31.78,162.33l-0.04 0 0 -0.02z"/>
    <path class="fil2" d="M7304.71 3163.35c-0.36,10.15 -0.79,20.35 -1.18,30.57 -41.81,27.47 -109.29,27.13 -155.2,50.2 67.63,2.96 120.91,19.25 166.95,42.22l-2.96 76.55c-76.66,52.48 -146.67,130.62 -236.88,179.81 -42.7,23.29 -192.44,83.15 -237.82,72.56 -25.66,-5.94 -27.99,-37.81 -38.26,-67.87 -21.87,-64.31 -72.24,-166.67 -76.64,-263.56 -5.58,-122.31 -17.96,-327.27 113.84,-302.07 106.36,20.28 230.04,69.27 312.4,114.26 50.3,27.46 79.42,61.46 155.75,67.31l0.01 0.01z"/>
    <path class="fil11 str0" d="M7304.71 3163.35c-0.36,10.15 -0.79,20.35 -1.18,30.57 -41.81,27.47 -109.29,27.13 -155.2,50.2 67.63,2.96 120.91,19.25 166.95,42.22l-2.96 76.55c-76.66,52.48 -146.67,130.62 -236.88,179.81 -42.7,23.29 -192.44,83.15 -237.82,72.56 -25.66,-5.94 -27.99,-37.81 -38.26,-67.87 -21.87,-64.31 -72.24,-166.67 -76.64,-263.56 -5.58,-122.31 -17.96,-327.27 113.84,-302.07 106.36,20.28 230.04,69.27 312.4,114.26 50.3,27.46 79.42,61.46 155.75,67.31l0 0 0.01 0.01z"/>
    <g>
     <path class="fil2" d="M7380.85 3309.29c-11.75,-66.61 -25.27,-85.63 -20.02,-143.78 177.7,-118.45 211.09,203.54 19.98,143.78l0.04 0zm0 0l0 0 0 0z"/>
    </g>
    <path class="fil11 str0" d="M7380.85 3309.29c-11.75,-66.61 -25.27,-85.63 -20.02,-143.78 177.7,-118.45 211.09,203.54 19.98,143.78l0.04 0z"/>
    <g>
     <path class="fil3" d="M7638.09 3363.29c0,0 -55.23,-78.92 -15.75,-102.61 39.44,-23.67 78.92,0.02 102.61,-39.45 23.67,-39.43 0,-63.11 7.88,-110.46 7.91,-47.34 47.43,-55.27 86.84,-63.14 39.45,-7.88 149.98,-23.67 165.72,15.8l-47.36 -142.07 -94.71 -31.59 -299.91 173.66 -15.75 86.79 0 173.65 110.43 39.44 0.01 0zm-828.65 260.44c-9.49,-123.15 -19.5,-246.15 -30.67,-369.2 -16.66,-183.73 44.14,-151.68 203.44,-151.68 24.31,0 149.73,29.02 158.71,47.36 43.06,87.93 -71.96,68.37 49.59,134.65 102.59,55.96 283.9,-33.95 242.46,-158.32 -23.21,-27.66 -120.91,-8.62 -155.91,-26.74l-184.96 -95.9c-78.46,-40.72 -259.72,-100.01 -343.4,-43.15 -211.9,144.14 13.4,504.2 88.97,654.53l-28.22 8.47 -0.01 -0.02zm0 0l0 0 0 0z"/>
    </g>
    <g>
     <path class="fil4" d="M7017.1 827.56c-215.07,-50.1 -321.98,90.02 -387.14,235.34 -58.26,-14.11 -35.05,-93.28 -20.35,-133.63 38.5,-105.87 193.65,-246.82 320.43,-227.69 54.55,8.2 128.4,58.08 87.07,125.98zm1048.07 244.96l10.23 0.37c48.6,101 90.66,207.97 151.94,297.11 -41.05,95.67 -311.04,180.36 -306.87,8.55 58.38,-25.51 159.17,-5.21 210.92,-37.81 -29.89,-82.15 -73.08,-152.06 -66.23,-268.22l0 0 0.01 0zm-937.9 2.6c46.09,84.55 61.14,173.38 126.67,237.3 29.53,28.76 86.96,63.83 58.48,143.83 -6.67,18.88 -55.27,60.94 -83.33,69.2 -102.53,30.25 -341.34,6.26 -260.47,-121.54 84.8,3.94 198.7,55.03 262.07,-6.45 -48.63,-77.79 -135.37,-231.66 -103.43,-322.32l0 0 0 -0.01zm899.43 859.31c-154.35,99.16 -326.39,206.94 -579.26,181.93 -54.05,-46.97 -74.62,-151.51 -22.15,-220.54 27.34,46.97 10.15,133.36 86.31,146.37 143.47,24.55 310.44,-87.78 413.69,-127.06 63.96,-107.88 -5.54,-147.56 -63.17,-217.01 -118,-142.28 -276.36,-318.61 -270.61,-531.6 47.72,-34.58 51.82,52.8 58.68,68.71 61.63,144.2 216.72,328.7 329.9,452.15 27.8,30.4 73.54,59.57 78.66,79.67 14.67,58.48 -38.2,128.51 -32.06,167.39l0 0 0.01 -0.01zm-2034.44 -104.37c-48.34,-27.62 -59.9,-149.22 -116.66,-152.66 -81.12,-4.95 -66.33,157.73 -66.01,252.85 -55.86,-50.68 -65.68,-206.85 -24.65,-287.02 -46.81,-22.96 -67.67,25.34 -93.59,42.34 33.34,-242.19 354.32,-112.31 300.96,144.49l-0.04 0 -0.01 0zm2132.7 205.22c-71.84,136.73 -173.45,287.31 -384.22,291.69 -4.3,-44.14 -7.58,-111.34 0.2,-137.96 161.17,-15.45 260.64,-97.46 384.02,-153.73l0 0zm-1009.85 88.66c134.41,70.74 381.5,78.3 564.25,72.94 9.79,40.04 9.55,89.49 9.95,138.32 -234.89,11.71 -512.64,-46.39 -574.2,-211.26l0 0zm-25.56 131.82c92.96,233.43 412.51,206.55 681.93,200.11 -11.85,30.3 -37.57,66.11 -69.51,79.06 -86.38,35.14 -324.52,61.79 -444.41,-1.9 -76.04,-40.38 -124.86,-131.71 -166.51,-185.24 -20.11,-25.85 -120.27,-91.9 -1.5,-92.06l0 0.01 0 0.01zm0 0l0 0 0 0z"/>
    </g>
    <path class="fil12" d="M8015.49 3543.32c-109.09,186.83 -213.47,378.77 -342.94,543.58 54.28,-159.56 77.51,-426.6 85.68,-630.18 113.55,-53.1 210.76,11.96 257.26,86.6z"/>
    <path class="fil4" d="M8602.55 4214.92c-122.15,24.45 -207.95,143.18 -327.1,135.53 65.46,-92.3 180.22,-131.23 327.1,-135.53zm53.9 191.16c-99.54,10.53 -216.5,26.64 -317.47,18.31 47.81,-73.02 231.98,-47.81 317.47,-18.31zm34.48 164.79c-111.86,2.43 -250.94,0.2 -357.28,-8.69 62.88,-67.59 284.73,-25.1 357.28,8.69z"/>
    <path class="fil8" d="M7804.97 5021.88c16.01,140.53 71.7,282.92 64.78,436.79 -61.87,20.86 -97.44,39.12 -180.33,39.02 -5.84,-130.8 -23.37,-330.73 -18.12,-455.43 40.78,2.73 100.91,-29.11 133.67,-20.38z"/>
    <g>
     <path class="fil5" d="M7624.57 2950.92c-56.19,36.66 -104.04,82.48 -157.98,121.64 -119.69,5.93 -184.96,-8.29 -272.87,-77 1.44,-5.49 10.27,-3.03 10.59,-9.81 128.1,57.05 290.93,-23.29 420.26,-34.85l0 0.02zm0 0l0 0 0 0z"/>
    </g>
    <path class="fil12" d="M6952.16 3824.01c35.21,-152.47 173.1,-231.46 298.3,-315.44 129.27,164.02 207.87,374.95 294.44,578.54 -204.52,-61.67 -413.49,-161.7 -592.74,-263.1z"/>
    <path class="fil4" d="M7671.33 5042.26c-5.22,124.7 12.24,324.63 18.12,455.43 82.89,0.14 118.43,-18.11 180.29,-39.02 6.98,-153.87 -48.73,-296.26 -64.78,-436.79 -32.76,-8.73 -92.88,23.11 -133.63,20.38l0 0zm-1290.64 -709.04c54.64,502.48 133.81,924.85 278.97,1369.83 322.31,97.82 710.78,106.36 995.62,18.08 -52.28,-251.15 -29.47,-556.87 -59.98,-824.89 -23.08,-201.48 -11.3,-404.1 -42.9,-609.62 -345.17,-71.78 -833.03,-16.74 -1171.73,46.61l0 0 0.02 -0.01zm1253.3 -43.4c-2.91,215.77 9.65,428.61 26.12,644.71 82.9,-12.44 139.11,-20.74 216.06,-37.64 -24.97,-207.99 -21.87,-442.06 -72.82,-626.07 -58.84,0.56 -110.69,-0.69 -169.37,19l0 0zm420.4 -34.82c-39.34,-8.99 -85.12,-0.37 -122.71,0.38 17.66,175.9 60.53,370.04 75.59,554.7 59.14,1.84 90.74,-26.06 139.38,-35.45 2.59,-162.07 -14.21,-385.38 -92.24,-519.63l0 0 -0.01 0zm636.52 581.58c123.23,-29.93 200.66,-180.84 166.22,-335.87 -23.11,-104.2 -64.31,-300.34 -108.39,-366.99 -32.6,-49.27 -120.91,-113.81 -191.47,-68.65 -114.73,73.48 -316.88,94.77 -400.53,183.7 41.97,139.71 54.96,331.56 72.29,508.55 143.32,8.97 319.67,-39.41 438.86,11.94 -83.23,26.95 -191.2,27.15 -263.06,66.43 58.78,28.39 196.34,22.64 286.07,0.88l0 0 0.01 0zm-1146 -749.47c-86.57,-203.56 -165.2,-414.52 -294.44,-578.54 -125.2,83.98 -263.09,162.97 -298.3,315.44 179.25,101.4 388.18,201.43 592.74,263.1zm213.34 -630.35c-8.17,203.56 -31.41,470.63 -85.68,630.16 129.47,-164.78 233.83,-356.69 342.94,-543.55 -46.51,-74.67 -143.72,-139.73 -257.26,-86.64l0 0.02zm-241.86 -85.95c-49.02,-5.32 -90.63,56.37 -154.43,29.69 -14.6,16.15 -27.86,33.64 -42.75,49.43 140.81,169.73 204.8,410.51 313.58,609.97 58.34,-191.58 51.62,-401.49 64.48,-610.59 -80.2,5.05 -124.7,-72.52 -180.89,-78.5l0 0 0.01 0zm-155.51 -205.27c-5.25,58.13 8.27,77.16 19.98,143.79 191.05,59.72 157.68,-262.27 -19.98,-143.78l0 -0.01zm-211.9 -69.55c-82.31,-44.99 -206.03,-94 -312.35,-114.28 -131.78,-25.24 -119.46,179.8 -113.85,302.07 4.4,96.88 54.74,199.26 76.64,263.58 10.27,30.03 12.58,61.9 38.26,67.87 45.38,10.56 195.1,-49.29 237.8,-72.56 90.26,-49.19 160.25,-127.33 236.88,-179.8 1.02,-25.54 1.96,-51.04 2.98,-76.57 -46.07,-22.93 -99.3,-39.26 -166.92,-42.22 45.88,-23.11 113.37,-22.76 155.19,-50.22 0.4,-10.23 0.82,-20.4 1.18,-30.56 -76.35,-5.83 -105.44,-39.83 -155.77,-67.31l0 0 -0.02 0zm-786.37 -142.87c-68.32,69.38 191.67,163.91 274.46,169.02 -0.46,-43.92 25,-85.27 19.89,-116.76 -98.35,-17.25 -227.53,-5.87 -294.34,-52.25l0 0 -0.01 0zm841.77 32.57c-0.36,6.78 -9.19,4.32 -10.6,9.85 87.89,68.7 153.19,82.9 272.83,76.99 53.98,-39.16 101.83,-84.95 157.98,-121.64 -129.33,11.55 -292.13,91.9 -420.22,34.8l0.01 0zm772.57 234.31c-3.67,-77.09 -23.93,-235.55 -71.58,-263.27 -99.98,-58.39 -277.7,117.81 -352.97,144.7 8.17,23.55 21.69,42.23 22.71,72.39 44.56,-10.94 98.78,-3.46 137.37,15.53 -44.59,4.99 -94.12,4.66 -123.62,25.9 -10.83,31.27 2.63,73.9 -4.56,117.36 105.92,29.85 226.93,45.77 360.82,49.71 26.02,-33.9 34.92,-98.42 31.83,-162.33l0 0.01 0.01 0.01zm-1729.35 -199.77c-21.43,-15.31 -166.59,-204.16 -186.47,-196.32 -262.63,103.59 -508.24,282.71 -727.71,452.1 209.23,448.99 293.73,999.06 308.64,1529.23 239.69,112.14 450.23,273.76 775.5,290.6 -37.63,-266.31 -72.04,-503.91 -93.36,-754.61 -81.75,-34.46 -198.97,1.58 -275.46,-10.69 -0.62,-92.14 116.83,-40.37 126.6,-102.33 7.37,-46.91 -64.65,-50.44 -41.18,-124.24 59.8,21.72 91.2,69.71 154.93,87.75 58.28,-127.47 -0.79,-353.01 7.58,-459.57 1.61,-19.99 10.01,-110.8 54.8,-94.88 39.67,14.08 -2.27,241.54 2.06,342.38 3.97,92.91 -11.22,182.8 26.42,241.14 314.32,-42.83 633.69,-70.46 973.78,-79.78 -74.79,-32.12 -163.69,-62.49 -261.13,-117.42 -52.84,-29.77 -219.38,-91.72 -234.6,-141.89 -24.31,-79.98 63.8,-122.59 78.86,-191.1 -158.64,86.54 -189.62,-82.93 -227.13,-202.98 -34,-108.75 -53.36,-189.97 -61.69,-252.69 -136.68,-65.17 -282.78,-131.15 -400.43,-214.7l0 0 -0.01 0zm1590.54 -173.48c218.86,-106.1 258.31,396.61 172.52,558.54 13.27,48.31 58.84,66.78 77.45,110.23 -122.11,218.77 -257.74,422.99 -382.34,639.15 92.7,-57.7 225.08,-10.31 334.17,-53.5 39.88,-15.75 68.71,-107.02 98.92,-180.03 83.03,-200.91 170.18,-454.16 208.97,-645.89 8.77,-43.66 32.62,-138.84 27.26,-177.73 -9.51,-69.61 -103.95,-121.22 -152,-164.26 -88.51,-79.5 -144.24,-149.43 -236.58,-223.78 -37.41,55.22 -117.74,92.33 -148.37,137.25l0 0 0.01 0zm-2091.03 -1940.65c-104.29,114.71 -82.47,329.72 -69.82,482.66 188.49,-118.6 438.65,9.34 436.3,211.04 89.99,-2.41 33.6,-112.41 17.33,-183.27 -53.16,-231.46 89.64,-482.91 6.5,-694.58 -161.42,12.25 -294.08,78.19 -390.29,184.14l0 0 -0.01 0.01zm746.13 -665.91c-236.06,66.9 -538.6,238.43 -635.6,450.51 75.11,-10.94 127.23,-48.82 201.33,-53.5 28.07,-1.81 64.71,11.72 96.91,3.73 64.11,-15.91 118.24,-159.7 166.61,-213.21 47.19,-52.27 103.9,-74.59 142.69,-122.23 24.92,-12.02 61.77,-11.18 63.21,-48.62 -10.83,-11.55 -22.21,-20.35 -35.14,-16.68l0 0zm1228.88 62.91c-245.03,-138.21 -659.75,-242.2 -920.4,-112.3 -210.27,104.89 -494.58,278.37 -591.52,498.21 90.56,212.19 -26.8,406.58 -34.29,621.99 -3.99,114.59 53.95,214.65 58.38,339.43 -31.01,51.14 -125.62,57.43 -191.15,53.93 -22.05,-110.38 -60.64,-234.43 -174.35,-246.9 -160.81,-17.6 -278.39,115.52 -285.71,254.61 -8.67,163.57 125.63,434.7 315.97,415.88 73.5,-7.27 91.59,-80.97 171.7,-80.21 43.37,86.64 -66.99,113.84 -78.38,175.79 -2.96,16 9.19,78.56 16.21,107.91 34.56,142.8 111.64,327.67 187.49,436.43 96.26,137.96 285.44,158.71 488.94,172.24 36.33,-78.3 170.22,-71.84 257.48,-51.35 -104.55,-41.43 -201.75,-141.79 -282.32,-230.66 -92.5,-101.94 -186.23,-211.3 -190.99,-344.55 174.87,242.58 319.37,454.47 637.3,561.14 240.62,80.71 521.59,-36.96 706.43,-166.79 76.69,-53.97 122.51,-139.57 177.02,-217.94 203.98,-293.46 299.22,-712.36 278.28,-1118.31 -8.6,-167.46 -8.24,-334.3 -64.41,-446.95 -58.7,-117.82 -257.28,-223.18 -373.55,-116.64 -21.53,-114.53 96.67,-185.42 235.53,-144.16 -98.98,-127.84 -202.9,-281.38 -343.63,-360.8l0 0 -0.02 0zm456.46 3777.91c191.48,-95.17 549.23,-256.16 669.27,0.36 44.3,94.59 96.26,254.44 119.22,352.07 32.4,137.69 -35.14,427.19 -176.71,473.41 -125.04,40.82 -270.94,38.36 -421.54,8.07 -17.72,-14.77 -37.48,-40.47 -51.31,-67.28 -107.5,-4.17 -208.21,5.8 -293.18,49.97 8.07,79.52 -45.72,92.28 -96.16,108.69 -37.37,148.22 74.79,341.81 47.95,477 -19.14,96.27 -137.64,111.18 -224.68,129.18 -2.87,53.5 3.81,98.18 9.75,143.44 -19.89,73.38 -109.22,115.15 -193.89,125.36 -278.34,33.44 -701.09,48.51 -968.85,-47.81 -74.72,-183.31 -133.63,-406.27 -195.85,-615.55 -261.19,27.93 -472.44,-112.68 -671.59,-204.77 -68.94,-31.96 -164.34,-49.59 -190.07,-104.45 -24.97,-53.17 -14.77,-154.97 -20.96,-251.19 -15.75,-245.65 -29.23,-482.66 -94.12,-734.2 -29.15,-112.89 -79.93,-212.52 -115.35,-321.28 -32.72,-100.81 -89.92,-225.38 -104.86,-325.9 -22.11,-148.99 118.17,-157.29 207.87,-221.86 138.72,-99.82 247.57,-155.05 397.75,-245.15 44.49,-26.7 178.62,-94.23 193.88,-125.35 30.33,-61.68 -52.08,-148.63 -74.1,-196.99 -34.85,-76.45 -53,-141.4 -58.02,-216.86 -125.98,-19.88 -221.5,-94.88 -279.17,-179.43 -95.43,-139.92 -161.65,-398.8 -79.06,-595.73 6.45,-15.49 38.78,-45.99 43.55,-69.79 9.39,-46.91 -17.69,-109.29 -19.36,-159.16 -8.69,-255.92 43.29,-476.45 215.59,-553.64 69.95,-278.66 320.29,-371.3 556.16,-509.77 88.17,-51.77 185.38,-84.85 285.77,-121.78 360.08,-132.5 912.48,-107.57 1211.34,118.46 126.71,95.84 329.26,298.2 401.68,444.71 191.37,386.76 177.78,1033.23 43.94,1503.72 -17.98,63.18 -44.07,156.03 -80.55,231.93 -25.4,52.97 -104.35,159.01 -94.77,205.79 9.89,48.35 180.07,177.56 216.52,212.74 65.7,63.37 190.54,147.5 200.65,227.49 10.85,85.1 -37.51,201.53 -62.05,283.7 -81.85,274.12 -161.76,527.47 -254.66,771.82l-0.02 0z"/>
    <path class="fil9" d="M6901.19 2183.64c10.37,-13.82 67.46,-34.8 147.38,3.65 0,0 -94.71,15.78 -86.8,173.68l-39.44 -7.91c-0.04,0 -40.83,-143.16 -21.14,-169.44l0 0.02z"/>
    <g>
     <path class="fil13" d="M7593.13 3540.79c0,11.52 -4.59,22.55 -12.74,30.67 -8.1,8.14 -19.16,12.7 -30.67,12.7 -11.49,0 -22.55,-4.56 -30.67,-12.7 -8.11,-8.14 -12.7,-19.16 -12.7,-30.67 0,-11.51 4.59,-22.54 12.7,-30.67 8.14,-8.14 19.2,-12.69 30.67,-12.69 11.51,0 22.59,4.56 30.67,12.69 8.15,8.15 12.74,19.16 12.74,30.67l0 0zm43.41 201.24c-0.02,11.51 -4.59,22.59 -12.73,30.71 -8.17,8.14 -19.2,12.7 -30.72,12.7 -11.51,0 -22.54,-4.59 -30.71,-12.74 -8.14,-8.14 -12.7,-19.19 -12.7,-30.71 0,-11.52 4.59,-22.55 12.74,-30.67 8.14,-8.14 19.19,-12.7 30.71,-12.7 11.52,0 22.55,4.6 30.67,12.74 8.14,8.14 12.7,19.2 12.7,30.67l0.02 0 0.01 0zm0 0l0 0 0 0z"/>
    </g>
   </g>
   <g>
    <g>
     <g>
      <polygon class="fil14 str1" points="4679.24,7040.82 4679.24,5956.31 5706.26,5363.38 5706.26,4199.21 6615.62,3674.2 6615.62,5922.85 "/>
      <polygon class="fil14 str1" points="4351.42,7040.82 4351.42,5956.31 3324.39,5363.38 3324.39,4199.21 2415.06,3674.2 2415.06,5922.85 "/>
     </g>
     <polygon class="fil14 str1" points="6457.22,3352.11 5518.03,3909.14 4490.99,3300.02 3482.79,3897.96 2573.45,3358.66 4520.85,2203.72 "/>
    </g>
    <g>
     <polygon class="fil15 str1" points="4823.05,3851.33 3953.23,5357.94 3645.5,5180.24 3645.5,4175.86 4515.34,3673.64 "/>
     <polygon class="fil16 str1" points="4207.62,5504.78 5077.47,3998.17 5385.19,4175.86 5385.19,5180.24 4515.35,5682.47 "/>
    </g>
   </g>
  </g>
 </g>
</svg>
