<svg width="22" height="22" viewBox="0 0 22 22" fill="none" xmlns="http://www.w3.org/2000/svg">
<g clip-path="url(#clip0_457_60)">
<path d="M11 13.0625C11.547 13.0625 12.0716 12.8452 12.4584 12.4584C12.8452 12.0716 13.0625 11.547 13.0625 11C13.0625 10.453 12.8452 9.92839 12.4584 9.54159C12.0716 9.1548 11.547 8.9375 11 8.9375C10.453 8.9375 9.92839 9.1548 9.54159 9.54159C9.1548 9.92839 8.9375 10.453 8.9375 11C8.9375 11.547 9.1548 12.0716 9.54159 12.4584C9.92839 12.8452 10.453 13.0625 11 13.0625V13.0625Z" fill="white"/>
<path fill-rule="evenodd" clip-rule="evenodd" d="M11 0C8.08262 0 5.28473 1.15893 3.22183 3.22183C1.15893 5.28473 0 8.08262 0 11C0 13.9174 1.15893 16.7153 3.22183 18.7782C5.28473 20.8411 8.08262 22 11 22C13.9174 22 16.7153 20.8411 18.7782 18.7782C20.8411 16.7153 22 13.9174 22 11C22 8.08262 20.8411 5.28473 18.7782 3.22183C16.7153 1.15893 13.9174 0 11 0V0ZM2.0625 11C2.0625 8.62963 3.00413 6.35634 4.68023 4.68023C6.35634 3.00413 8.62963 2.0625 11 2.0625C13.3704 2.0625 15.6437 3.00413 17.3198 4.68023C18.9959 6.35634 19.9375 8.62963 19.9375 11C19.9375 13.3704 18.9959 15.6437 17.3198 17.3198C15.6437 18.9959 13.3704 19.9375 11 19.9375C8.62963 19.9375 6.35634 18.9959 4.68023 17.3198C3.00413 15.6437 2.0625 13.3704 2.0625 11V11Z" fill="white"/>
</g>
<defs>
<clipPath id="clip0_457_60">
<rect width="22" height="22" fill="white"/>
</clipPath>
</defs>
</svg>
