<svg width="340" viewBox="0 0 318 309" fill="none" xmlns="http://www.w3.org/2000/svg">
<path d="M239.375 138.869H231.627V131.121H239.375V138.869ZM226.462 138.869H218.713V131.121H226.462V138.869Z" fill="white" fill-opacity="0.2"/>
<path d="M225.17 90.0338L219.758 84.6213L214.279 90.1L229.212 105.035L244.144 90.1L238.665 84.6213L232.919 90.368V29.5647H191.036V37.313H225.17V90.0338Z" fill="white" fill-opacity="0.2"/>
<path d="M184.69 227.093L179.211 221.614L164.278 236.548L179.211 251.481L184.69 246L179.108 240.422H191.333V232.673H179.108L184.69 227.093Z" fill="white" fill-opacity="0.2"/>
<path d="M135.629 169.943L167.378 138.194H175.295L169.713 143.773L175.194 149.254L190.125 134.32L175.194 119.387L169.713 124.867L175.295 130.446H167.378L135.629 98.6974V66.6452C150.977 64.8663 163.182 52.6579 164.963 37.313H180.705V29.5647H164.963C163.035 12.9461 148.882 0 131.755 0C113.319 0 98.3191 14.9994 98.3191 33.4388C98.3191 50.5658 111.262 64.7162 127.881 66.6452V98.6974L96.135 130.446H88.2172L93.796 124.867L88.3189 119.387L73.384 134.32L88.3189 149.254L93.796 143.773L88.2172 138.194H96.135L127.881 169.943V208.62H103.828V264.476H159.684V242.927H151.936V256.727H111.577V216.368H151.936V232.596H159.684V208.62H135.629V169.943ZM106.067 33.4388C106.067 19.2739 117.59 7.74831 131.755 7.74831C145.923 7.74831 157.445 19.2739 157.445 33.4388C157.445 47.6037 145.923 59.1277 131.755 59.1277C117.59 59.1277 106.067 47.6037 106.067 33.4388ZM131.755 105.782L160.294 134.32L131.755 162.858L103.218 134.32L131.755 105.782Z" fill="white" fill-opacity="0.2"/>
<path d="M252.99 109.629H205.097L195.081 119.645V148.995L205.097 159.015H225.17V232.675H201.664V240.424H232.919V159.012H252.99L263.008 148.994V119.645L252.99 109.629ZM255.26 145.784L249.779 151.263H208.308L202.829 145.784V122.856L208.308 117.377H249.779L255.26 122.856V145.784Z" fill="white" fill-opacity="0.2"/>
<path d="M78.8224 227.094L84.4012 232.674H38.3423V200.874H30.594V240.422H84.4012L78.8224 246.001L84.3011 251.481L99.2344 236.548L84.3011 221.615L78.8224 227.094Z" fill="white" fill-opacity="0.2"/>
<path d="M30.5939 190.542H38.3422V159.012H58.412L68.4315 148.994V119.645L58.412 109.626H10.5226L0.504639 119.645V148.994L10.5226 159.012H30.5939V190.542ZM8.25295 145.785V122.856L13.73 117.377H55.2045L60.6832 122.856V145.785L55.2045 151.263H13.73L8.25295 145.785Z" fill="white" fill-opacity="0.2"/>
<path d="M174.405 216.219H137.692C122.95 216.219 111 228.402 111 243.43V280.859C111 295.887 122.95 308.069 137.692 308.069H174.405C189.146 308.069 201.096 295.886 201.096 280.859V243.43C201.096 228.402 189.146 216.219 174.405 216.219V216.219Z" fill="#2088FF"/>
<path d="M180.445 258.696C179.817 257.75 178.984 256.965 178.01 256.403C177.035 255.84 175.946 255.515 174.828 255.454C173.71 255.392 172.593 255.595 171.565 256.047C170.536 256.499 169.625 257.186 168.901 258.058C168.409 258.597 167.995 259.206 167.672 259.865C167.351 260.499 167.103 261.169 166.931 261.861H162.469C162.371 261.693 162.299 261.51 162.257 261.319C161.65 258.889 160.163 257.152 157.906 256.194C153.563 254.349 148.848 256.795 147.633 261.459C147.554 261.765 147.613 262.112 147.104 262.183C144.999 262.479 142.622 261.25 141.624 259.291C140.951 257.969 140.987 257.855 142.433 257.669C148.437 256.901 153.339 250.686 151.264 243.478C149.761 238.257 144.147 234.868 138.889 235.979C133.933 237.025 130.434 241.239 130.174 246.471C129.936 251.285 133.202 255.886 137.944 257.316C138.658 257.532 138.82 257.853 138.816 258.553C138.792 263.433 138.77 268.315 138.822 273.194C138.871 277.708 142.118 281.383 146.47 281.859C147.29 281.948 147.567 282.243 147.773 283.019C148.583 286.079 151.279 288.256 154.418 288.498C155.923 288.621 157.43 288.276 158.74 287.508C160.049 286.74 161.099 285.586 161.752 284.198C163.67 280.005 161.77 275.217 157.558 273.63C153.386 272.059 148.845 274.495 147.693 278.984C147.496 279.753 147.165 279.8 146.536 279.694C143.303 279.148 141.057 276.521 140.967 273.095C140.931 271.72 140.958 270.342 140.958 268.966C140.958 266.785 140.958 264.604 140.958 262.172C141.999 262.986 142.876 263.598 143.907 263.954C144.932 264.288 146.009 264.427 147.083 264.366C147.601 264.348 147.557 264.745 147.639 265.055C148.194 267.182 149.365 268.84 151.252 269.933C152.253 270.521 153.373 270.864 154.526 270.938C155.678 271.011 156.832 270.812 157.896 270.356C158.961 269.899 159.908 269.198 160.662 268.308C161.417 267.416 161.96 266.36 162.248 265.22C162.291 265.032 162.363 264.852 162.463 264.689H166.999C167.028 264.939 167.08 265.186 167.153 265.426C168.09 268.866 171.184 271.058 174.721 270.936C177.559 270.838 180.757 269.016 181.735 264.945C181.987 263.87 182.001 262.753 181.778 261.672C181.555 260.591 181.099 259.575 180.444 258.696L180.444 258.696L180.445 258.696ZM154.99 275.384C155.697 275.378 156.398 275.515 157.053 275.788C157.708 276.06 158.303 276.463 158.804 276.972C159.304 277.481 159.7 278.087 159.968 278.754C160.237 279.421 160.372 280.137 160.366 280.857C160.37 281.944 160.057 283.007 159.467 283.913C158.876 284.818 158.036 285.524 157.052 285.942C156.068 286.36 154.984 286.47 153.939 286.26C152.893 286.049 151.932 285.527 151.177 284.759C150.423 283.991 149.909 283.012 149.701 281.946C149.493 280.881 149.6 279.775 150.008 278.772C150.416 277.768 151.107 276.91 151.994 276.307C152.881 275.704 153.923 275.383 154.99 275.385V275.384ZM132.392 246.729C132.41 244.415 133.326 242.203 134.939 240.575C136.552 238.947 138.731 238.036 141.001 238.039C143.27 238.044 145.446 238.963 147.054 240.596C148.66 242.231 149.568 244.446 149.579 246.76C149.584 247.916 149.365 249.06 148.935 250.129C148.504 251.197 147.871 252.169 147.07 252.987C146.27 253.805 145.32 254.453 144.273 254.894C143.226 255.337 142.103 255.563 140.97 255.561C139.837 255.559 138.716 255.329 137.67 254.883C136.625 254.437 135.676 253.785 134.879 252.964C134.082 252.143 133.451 251.17 133.025 250.1C132.598 249.03 132.383 247.885 132.392 246.729L132.392 246.729H132.392ZM154.953 268.741C153.893 268.731 152.859 268.402 151.983 267.794C151.107 267.186 150.427 266.327 150.029 265.325C149.632 264.323 149.534 263.224 149.749 262.166C149.964 261.108 150.481 260.138 151.236 259.379C151.99 258.621 152.949 258.107 153.99 257.903C155.03 257.7 156.107 257.815 157.083 258.235C158.06 258.654 158.893 259.36 159.477 260.261C160.061 261.163 160.37 262.221 160.364 263.301C160.361 264.022 160.219 264.734 159.945 265.398C159.671 266.062 159.271 266.663 158.769 267.17C158.265 267.675 157.669 268.074 157.014 268.344C156.359 268.614 155.659 268.749 154.952 268.742L154.953 268.741ZM172.015 268.2C170.818 267.615 169.875 266.602 169.364 265.354C168.853 264.106 168.81 262.709 169.244 261.431C169.678 260.152 170.558 259.082 171.717 258.422C172.875 257.763 174.231 257.561 175.526 257.855C176.821 258.149 177.965 258.919 178.739 260.017C179.513 261.116 179.864 262.466 179.725 263.812C179.585 265.157 178.965 266.403 177.983 267.312C177 268.22 175.724 268.729 174.397 268.74C174.347 268.74 174.297 268.739 174.247 268.737C173.475 268.713 172.716 268.53 172.015 268.199V268.2L172.015 268.2L172.015 268.2Z" fill="white"/>
<path d="M145.405 244.932C143.641 243.746 141.852 242.597 140.039 241.485C138.439 240.5 136.717 241.494 136.672 243.402C136.645 244.526 136.667 245.652 136.668 246.778C136.67 247.934 136.648 249.091 136.675 250.246C136.716 252.04 138.404 253.069 139.912 252.174C141.765 251.074 143.589 249.926 145.385 248.726C146.88 247.731 146.884 245.927 145.406 244.933H145.405H145.406L145.405 244.932ZM143.936 247.075C142.396 248.045 140.857 249.017 139.318 249.989C139.052 250.158 138.845 250.174 138.845 249.77C138.841 247.683 138.843 245.598 138.843 243.315C140.647 244.47 142.299 245.527 143.948 246.587C144.198 246.747 144.191 246.915 143.936 247.075V247.075ZM152.809 281.926C153.462 281.883 153.86 281.507 153.885 280.882C153.9 280.742 153.886 280.599 153.842 280.464C153.799 280.33 153.728 280.207 153.633 280.103C153.538 279.999 153.423 279.918 153.294 279.863C153.166 279.809 153.028 279.785 152.889 279.79C152.205 279.763 151.795 280.152 151.785 280.858C151.776 281.532 152.195 281.843 152.808 281.926H152.809ZM157.182 281.913C157.814 281.818 158.218 281.472 158.185 280.799C158.152 280.137 157.74 279.76 157.092 279.791C156.449 279.822 156.055 280.228 156.081 280.888C156.108 281.549 156.537 281.874 157.182 281.913V281.913ZM177.183 262.657C177.429 262.406 177.628 262.137 177.6 261.728C177.613 261.527 177.564 261.328 177.46 261.157C177.355 260.987 177.201 260.854 177.018 260.778C176.827 260.671 176.607 260.633 176.391 260.668C176.176 260.704 175.979 260.811 175.83 260.974C175.259 261.497 174.716 262.05 174.204 262.632C173.622 263.327 173.144 263.655 172.431 262.75C172.012 262.219 171.379 262.23 170.892 262.748C170.435 263.235 170.509 263.789 170.931 264.264C171.383 264.774 171.867 265.257 172.359 265.727C173.041 266.377 173.504 266.379 174.185 265.705C175.197 264.703 176.183 263.673 177.183 262.657V262.657H177.183ZM157.674 260.8C157.489 260.683 157.27 260.633 157.053 260.657C156.837 260.681 156.634 260.779 156.478 260.934C155.926 261.429 155.4 261.953 154.903 262.505C154.299 263.195 153.783 263.735 152.974 262.702C152.578 262.197 151.959 262.268 151.507 262.738C151.047 263.217 151.094 263.768 151.525 264.247C152 264.775 152.513 265.27 153.014 265.775C153.614 266.377 154.201 266.318 154.776 265.731C155.772 264.715 156.769 263.7 157.766 262.686C158.033 262.414 158.262 262.127 158.22 261.716C158.227 261.525 158.179 261.338 158.082 261.175C157.985 261.012 157.843 260.883 157.674 260.8V260.8V260.8Z" fill="white"/>
<path d="M316.612 158.751C316.612 184.139 296.586 204.721 271.882 204.721C247.179 204.721 227.153 184.139 227.153 158.751C227.153 133.361 247.18 112.78 271.882 112.78C296.586 112.78 316.612 133.362 316.612 158.751V158.751Z" fill="#D33833"/>
<path d="M228.975 170.137C228.975 170.137 225.738 122.197 269.701 120.828L266.634 115.691L242.779 123.738L235.963 131.614L229.998 143.085L226.589 156.44L227.612 165.343L228.975 170.137V170.137Z" fill="#EF3D3A"/>
<path d="M241.246 127.391C233.398 135.459 228.542 146.599 228.542 158.923C228.542 171.244 233.398 182.385 241.246 190.452C249.098 198.518 259.918 203.497 271.882 203.497C283.845 203.497 294.666 198.519 302.518 190.452C310.366 182.386 315.223 171.244 315.223 158.923C315.223 146.599 310.365 135.459 302.518 127.391C294.667 119.326 283.845 114.349 271.882 114.347C259.918 114.348 249.098 119.326 241.246 127.391V127.391ZM239.26 192.403C230.919 183.833 225.763 171.989 225.763 158.923C225.763 145.855 230.919 134.012 239.259 125.44C247.598 116.867 259.14 111.554 271.881 111.556C284.621 111.554 296.166 116.867 304.502 125.44C312.843 134.012 318.001 145.856 318 158.923C318.001 171.988 312.844 183.832 304.502 192.403C296.165 200.976 284.621 206.288 271.881 206.288C259.141 206.288 247.598 200.975 239.26 192.403H239.26H239.26Z" fill="#231F20"/>
<path d="M290.712 159.006L283.895 160.033L274.694 161.061L268.73 161.232L262.936 161.061L258.506 159.691L254.587 155.411L251.52 146.679L250.838 144.795L246.748 143.426L244.363 139.487L242.659 133.837L244.534 128.872L248.964 127.331L252.542 129.044L254.245 132.81L256.29 132.467L256.972 131.612L256.29 127.674L256.12 122.708L257.143 115.86L257.103 111.948L260.21 106.958L265.663 103.02L275.205 98.9104L285.77 100.451L294.971 107.128L299.231 113.977L301.958 118.942L302.64 131.27L300.595 141.885L296.846 151.302L293.267 156.267L290.711 159.006L290.711 159.006L290.712 159.006Z" fill="#F0D6B7"/>
<path d="M284.917 188.625L260.551 189.653V193.762L262.595 208.144L261.573 209.342L244.533 203.521L243.34 201.467L241.636 182.12L237.717 170.477L236.865 167.738L250.497 158.322L254.757 156.61L258.506 161.233L261.743 164.143L265.493 165.342L267.197 165.855L269.241 174.758L270.775 176.641L274.694 175.272L271.967 180.58L286.793 187.6L284.918 188.627V188.626L284.917 188.626V188.625Z" fill="#335061"/>
<path d="M244.533 128.872L248.963 127.331L252.541 129.044L254.245 132.81L256.29 132.467L256.801 130.413L255.779 126.476L256.801 117.058L255.949 111.922L259.016 108.327L265.662 103.02L263.788 100.451L254.415 105.074L250.497 108.156L248.282 112.949L244.873 117.572L243.851 123.051L244.533 128.872Z" fill="#6D6B6D"/>
<path d="M251.518 112.778C251.518 112.778 254.075 106.444 264.299 103.362C274.523 100.28 264.81 101.135 264.81 101.135L253.733 105.417L249.474 109.696L247.599 113.121L251.518 112.778H251.518V112.778ZM246.407 127.674C246.407 127.674 242.829 115.689 256.46 113.976L255.948 111.922L246.577 114.148L243.85 123.051L244.532 128.872L246.407 127.674H246.407Z" fill="#DCD9D8"/>
<path d="M251.859 143.597L254.09 141.424C254.09 141.424 255.097 141.542 255.267 142.74C255.437 143.939 255.948 154.726 263.276 160.547C263.944 161.078 257.823 159.69 257.823 159.69L252.37 151.131L251.859 143.596V143.597V143.597ZM283.214 140.344C283.214 140.344 283.611 135.154 285.003 135.553C286.393 135.952 286.393 137.35 286.393 137.35C286.393 137.35 283.015 139.546 283.214 140.344V140.344V140.344ZM297.357 121.339C297.357 121.339 294.547 121.935 294.29 124.421C294.031 126.908 297.357 124.935 297.868 124.763L297.357 121.339V121.339ZM276.738 121.51C276.738 121.51 272.989 122.024 272.989 124.421C272.989 126.817 277.249 126.647 278.442 125.62L276.738 121.51H276.738H276.738ZM253.563 132.639C253.563 132.639 247.088 128.701 246.407 132.467C245.724 136.235 244.191 138.974 247.429 142.912L245.214 142.227L243.169 136.919L242.487 131.783L246.407 127.673L250.837 128.016L253.392 130.071L253.563 132.639V132.639H253.563V132.639ZM256.631 121.853C256.631 121.853 259.527 106.786 274.182 103.876C286.247 101.48 292.585 104.389 294.97 107.128C294.97 107.128 284.236 94.2879 274.012 98.2257C263.787 102.163 256.29 109.354 256.46 113.977C256.75 121.85 256.631 121.853 256.631 121.853V121.853L256.631 121.853ZM296.164 108.84C296.164 108.84 291.223 108.669 291.051 113.121C291.051 113.121 291.051 113.806 291.393 114.491C291.393 114.491 295.313 110.039 297.697 112.436L296.163 108.841L296.164 108.84L296.164 108.84Z" fill="#F7E4CD"/>
<path d="M274.525 114.954C274.525 114.954 273.675 108.121 267.878 112.094C264.128 114.662 264.469 118.257 265.15 118.942C265.833 119.627 265.647 121.006 266.166 120.059C266.684 119.113 266.513 116.031 268.388 115.175C270.263 114.319 273.336 113.363 274.525 114.954H274.525L274.525 114.954Z" fill="#F7E4CD"/>
<path d="M258.505 161.231L242.487 168.423C242.487 168.423 249.133 194.961 245.725 203.179L243.34 202.323L243.169 192.222L238.739 173.046L236.865 167.738L253.564 156.438L258.505 161.232H258.505V161.231ZM260.152 175.91L262.424 178.695V188.968H259.698C259.698 188.968 259.357 181.777 259.357 180.921C259.357 180.065 259.698 176.983 259.698 176.983L260.152 175.91V175.91ZM260.209 190.509L252.541 190.852L254.756 192.393L260.209 193.248V190.509Z" fill="#49728B"/>
<path d="M286.451 188.797L292.757 188.625L294.29 204.377L287.815 205.233L286.451 188.797Z" fill="#335061"/>
<path d="M288.155 188.797L297.697 188.283C297.697 188.283 301.616 178.353 301.616 177.839C301.616 177.326 305.024 163.457 305.024 163.457L297.357 155.411L295.823 154.042L291.734 158.151V174.074L288.155 188.797V188.797H288.155Z" fill="#335061"/>
<path d="M292.415 187.598L286.451 188.797L287.302 193.592C289.517 194.619 293.267 191.879 293.267 191.879L292.415 187.599V187.598ZM292.585 157.637L304.514 166.54L304.854 162.431L295.823 154.042L292.585 157.637V157.637Z" fill="#49728B"/>
<path d="M266.123 222.528L262.595 208.143L260.841 197.53L260.551 189.653L276.517 188.798L286.451 188.797L285.548 206.776L287.082 220.644L286.911 223.212L273.961 224.239L266.123 222.528Z" fill="white"/>
<path d="M284.236 188.625C284.236 188.625 283.383 206.431 285.939 219.102C285.939 219.102 280.827 222.355 273.329 223.21L287.643 222.697L289.347 221.669L287.303 193.591L286.791 187.598L284.236 188.626V188.625Z" fill="#DCD9D8"/>
<path d="M294.579 203.01L301.225 201.126L313.834 200.441L315.709 194.62L312.3 184.518L308.382 184.005L302.929 185.716L297.697 188.283L294.92 187.771L292.755 188.625L294.579 203.01H294.579V203.01Z" fill="white"/>
<path d="M294.46 199.583C294.46 199.583 298.889 197.529 299.571 197.7L297.697 188.283L299.912 187.428C299.912 187.428 301.446 196.33 301.446 197.357C301.446 197.357 310.988 197.871 311.841 197.871C311.841 197.871 313.885 193.933 313.374 189.824L315.248 195.303L315.419 198.384L312.692 202.493L309.625 203.178L304.513 203.007L302.808 200.782L296.845 201.637L294.97 202.323L294.459 199.583H294.459H294.46Z" fill="#DCD9D8"/>
<path d="M287.763 187.429L284.014 177.842L280.095 172.192C280.095 172.192 280.947 169.794 282.139 169.794H286.059L289.808 171.164L289.468 177.498L287.763 187.428L287.763 187.429V187.429Z" fill="white"/>
<path d="M288.496 184.175C288.496 184.175 283.725 174.93 283.725 173.56C283.725 173.56 284.577 171.505 285.77 172.019C286.963 172.532 289.519 173.901 289.519 173.901V170.649L283.725 169.45L279.805 169.964L286.451 185.715L287.815 185.887L288.496 184.175H288.496V184.175Z" fill="#DCD9D8"/>
<path d="M267.656 161.576L262.936 161.06L258.505 159.691V161.232L260.67 163.63L267.486 166.712L267.656 161.576Z" fill="white"/>
<path d="M260.04 162.09C260.04 162.09 265.321 164.315 267.026 163.802L267.195 165.854L262.425 164.829L259.528 162.774L260.04 162.089V162.09Z" fill="#DCD9D8"/>
<path d="M294.561 170.377C291.669 170.292 289.057 169.947 286.77 169.299C286.925 168.357 286.634 167.432 286.869 166.753C287.505 166.292 288.575 166.299 289.538 166.191C288.703 165.779 287.534 165.617 286.572 165.854C286.549 165.2 286.257 164.795 286.08 164.283C287.706 163.7 291.543 159.878 293.702 161.144C294.731 161.746 295.168 165.184 295.248 166.856C295.314 168.244 295.123 169.643 294.562 170.377H294.561V170.377V170.377Z" fill="#D33833"/>
<path d="M294.561 170.377C291.669 170.292 289.057 169.947 286.77 169.299C286.925 168.357 286.634 167.432 286.869 166.753C287.505 166.292 288.575 166.299 289.538 166.191C288.703 165.779 287.534 165.617 286.572 165.854C286.549 165.2 286.257 164.795 286.08 164.283C287.706 163.7 291.543 159.878 293.702 161.144C294.731 161.746 295.168 165.184 295.248 166.856C295.314 168.244 295.123 169.643 294.562 170.377H294.561V170.377V170.377Z" stroke="#D33833" stroke-width="6.14073" stroke-miterlimit="22.9256"/>
<path d="M280.735 165.628C280.727 165.848 280.718 166.069 280.71 166.291C279.807 166.887 278.35 166.879 277.359 167.38C278.819 167.444 279.969 167.798 280.963 168.296L280.899 169.957C279.244 171.095 277.732 172.79 275.785 173.857C274.863 174.363 271.63 175.661 270.65 175.432C270.096 175.303 270.045 174.611 269.824 173.959C269.352 172.564 268.264 170.343 268.169 168.241C268.049 165.588 267.781 161.141 270.627 161.688C272.923 162.128 275.594 163.191 277.372 164.167C278.458 164.763 279.087 165.5 280.735 165.627L280.735 165.627L280.735 165.628Z" fill="#D33833"/>
<path d="M280.735 165.628C280.727 165.848 280.718 166.069 280.71 166.291C279.807 166.887 278.35 166.879 277.359 167.38C278.819 167.444 279.969 167.798 280.963 168.296L280.899 169.957C279.244 171.095 277.732 172.79 275.785 173.857C274.863 174.363 271.63 175.661 270.65 175.432C270.096 175.303 270.045 174.611 269.824 173.959C269.352 172.564 268.264 170.343 268.169 168.241C268.049 165.588 267.781 161.141 270.627 161.688C272.923 162.128 275.594 163.191 277.372 164.167C278.458 164.763 279.087 165.5 280.735 165.627L280.735 165.627L280.735 165.628Z" stroke="#D33833" stroke-width="6.14073" stroke-miterlimit="22.9256"/>
<path d="M282.379 168.794C282.125 167.349 281.833 166.936 281.947 165.674C285.783 163.105 286.504 170.09 282.378 168.794H282.379V168.794Z" fill="#D33833"/>
<path d="M282.379 168.794C282.125 167.349 281.833 166.936 281.947 165.674C285.783 163.105 286.504 170.09 282.378 168.794H282.379V168.794Z" stroke="#D33833" stroke-width="6.14073" stroke-miterlimit="22.9256"/>
<path d="M287.933 169.965C287.933 169.965 286.74 168.253 287.593 167.739C288.444 167.226 289.297 167.74 289.808 166.883C290.319 166.028 289.808 165.514 289.978 164.487C290.149 163.46 291.002 163.288 291.853 163.117C292.705 162.946 295.092 162.604 295.432 163.46L294.409 160.378L292.364 159.692L285.889 163.46L285.548 165.343V169.11L287.933 169.966H287.933L287.933 169.965ZM270.041 175.615C269.836 172.944 269.62 170.275 269.379 167.606C269.019 163.62 270.332 164.315 273.771 164.315C274.296 164.315 277.004 164.945 277.198 165.343C278.128 167.25 275.644 166.826 278.269 168.264C280.484 169.478 284.399 167.527 283.504 164.829C283.003 164.229 280.893 164.642 280.138 164.249L276.144 162.168C274.45 161.285 270.536 159.999 268.73 161.232C264.154 164.359 269.019 172.171 270.651 175.432L270.041 175.616L270.041 175.615V175.615Z" fill="#EF3D3A"/>
<path d="M274.525 114.954C269.881 113.867 267.573 116.907 266.166 120.059C264.908 119.753 265.409 118.036 265.727 117.16C266.558 114.864 269.908 111.806 272.645 112.221C273.823 112.399 275.418 113.481 274.525 114.954H274.525ZM297.154 120.268L297.375 120.276C298.425 122.467 299.333 124.788 300.656 126.722C299.769 128.797 293.94 130.635 294.03 126.907C295.291 126.354 297.467 126.794 298.584 126.087C297.939 124.305 297.006 122.788 297.154 120.268H297.154V120.268ZM276.904 120.325C277.899 122.159 278.224 124.086 279.639 125.473C280.276 126.097 281.516 126.857 280.901 128.593C280.757 129.003 279.708 129.915 279.102 130.094C276.888 130.75 271.732 130.23 273.478 127.457C275.309 127.543 277.768 128.651 279.137 127.318C278.087 125.63 276.214 122.292 276.903 120.325V120.325L276.904 120.325ZM296.324 138.967C292.991 141.118 289.276 143.456 283.817 142.914C282.65 141.895 282.205 139.627 283.338 138.129C283.929 139.148 283.558 141.022 285.202 141.305C288.3 141.837 291.905 139.4 294.134 138.548C295.515 136.208 294.014 135.347 292.77 133.84C290.222 130.754 286.803 126.928 286.927 122.307C287.958 121.557 288.046 123.453 288.194 123.798C289.525 126.926 292.874 130.929 295.317 133.607C295.918 134.267 296.905 134.9 297.016 135.336C297.332 136.604 296.191 138.124 296.323 138.967L296.324 138.967V138.967ZM252.397 136.703C251.353 136.103 251.104 133.465 249.878 133.391C248.127 133.283 248.446 136.813 248.453 138.876C247.247 137.777 247.035 134.389 247.921 132.649C246.91 132.151 246.46 133.199 245.9 133.568C246.62 128.314 253.55 131.131 252.398 136.703H252.397H252.397V136.703ZM298.445 141.155C296.894 144.121 294.7 147.388 290.149 147.483C290.057 146.525 289.986 145.067 290.154 144.49C293.634 144.155 295.781 142.375 298.445 141.155V141.155ZM276.641 143.078C279.543 144.613 284.878 144.777 288.824 144.661C289.036 145.529 289.03 146.602 289.039 147.661C283.967 147.915 277.97 146.655 276.641 143.078V143.078ZM276.089 145.938C278.096 151.002 284.996 150.419 290.813 150.279C290.557 150.937 290.002 151.713 289.312 151.994C287.447 152.757 282.305 153.335 279.717 151.953C278.075 151.077 277.021 149.096 276.122 147.935C275.687 147.374 273.525 145.941 276.089 145.937V145.938V145.938V145.938Z" fill="#231F20"/>
<path d="M296.082 173.871C293.726 177.924 291.473 182.088 288.677 185.663C289.849 182.202 290.351 176.409 290.527 171.992C292.979 170.84 295.078 172.252 296.082 173.871V173.871Z" fill="#81B0C4"/>
<path d="M308.757 188.441C306.12 188.971 304.267 191.547 301.694 191.381C303.108 189.379 305.586 188.534 308.757 188.441ZM309.921 192.588C307.772 192.816 305.246 193.166 303.066 192.985C304.098 191.401 308.075 191.948 309.921 192.588ZM310.665 196.163C308.25 196.216 305.247 196.167 302.951 195.975C304.309 194.508 309.099 195.43 310.665 196.163Z" fill="#231F20"/>
<path d="M291.536 205.948C291.882 208.997 293.084 212.086 292.935 215.424C291.599 215.876 290.831 216.272 289.041 216.27C288.915 213.433 288.537 209.095 288.65 206.39C289.531 206.449 290.829 205.758 291.536 205.948Z" fill="#DCD9D8"/>
<path d="M287.641 161.019C286.428 161.815 285.395 162.809 284.23 163.658C281.646 163.787 280.236 163.478 278.338 161.988C278.369 161.869 278.56 161.922 278.567 161.775C281.333 163.013 284.849 161.27 287.641 161.019V161.019V161.019Z" fill="#F0D6B7"/>
<path d="M273.123 179.961C273.883 176.653 276.86 174.939 279.563 173.117C282.354 176.676 284.051 181.252 285.921 185.668C281.505 184.33 276.993 182.16 273.123 179.961Z" fill="#81B0C4"/>
<path d="M288.651 206.39C288.538 209.095 288.915 213.433 289.042 216.27C290.832 216.273 291.599 215.877 292.935 215.424C293.085 212.085 291.882 208.996 291.536 205.948C290.829 205.758 289.531 206.449 288.651 206.39ZM260.784 191.008C261.964 201.909 263.673 211.072 266.807 220.725C273.766 222.847 282.154 223.033 288.304 221.118C287.175 215.669 287.668 209.037 287.009 203.222C286.511 198.851 286.765 194.455 286.083 189.997C278.63 188.439 268.096 189.633 260.783 191.008L260.784 191.008V191.008ZM287.844 190.066C287.782 194.747 288.053 199.364 288.408 204.053C290.198 203.783 291.412 203.603 293.073 203.236C292.534 198.724 292.601 193.646 291.501 189.654C290.231 189.666 289.111 189.639 287.844 190.066H287.844ZM296.921 189.311C296.072 189.116 295.084 189.303 294.272 189.319C294.653 193.135 295.579 197.347 295.904 201.353C297.181 201.393 297.863 200.787 298.913 200.584C298.969 197.068 298.607 192.223 296.922 189.311H296.922H296.921ZM310.665 201.928C313.326 201.278 314.997 198.004 314.254 194.641C313.755 192.381 312.865 188.125 311.913 186.679C311.21 185.611 309.303 184.21 307.779 185.19C305.302 186.784 300.937 187.246 299.131 189.175C300.038 192.206 300.318 196.368 300.692 200.208C303.787 200.403 307.594 199.353 310.168 200.467C308.371 201.052 306.04 201.056 304.488 201.908C305.757 202.524 308.727 202.4 310.665 201.927H310.665V201.928ZM285.921 185.668C284.052 181.252 282.354 176.675 279.564 173.117C276.86 174.939 273.883 176.653 273.123 179.96C276.993 182.16 281.504 184.33 285.921 185.668ZM290.527 171.993C290.351 176.409 289.849 182.203 288.677 185.664C291.473 182.089 293.726 177.926 296.082 173.872C295.078 172.252 292.979 170.841 290.527 171.993V171.993V171.993ZM285.305 170.129C284.247 170.013 283.348 171.351 281.971 170.773C281.656 171.123 281.369 171.502 281.048 171.845C284.088 175.527 285.47 180.751 287.819 185.078C289.078 180.922 288.933 176.368 289.211 171.832C287.479 171.941 286.518 170.258 285.305 170.129H285.305V170.129ZM281.948 165.675C281.834 166.936 282.126 167.349 282.379 168.795C286.504 170.09 285.784 163.105 281.948 165.676V165.675V165.675ZM277.372 164.166C275.595 163.19 272.924 162.127 270.628 161.687C267.783 161.14 268.049 165.588 268.17 168.24C268.265 170.342 269.352 172.563 269.825 173.959C270.047 174.61 270.097 175.302 270.651 175.431C271.631 175.66 274.863 174.362 275.785 173.857C277.734 172.79 279.245 171.095 280.9 169.956C280.922 169.402 280.942 168.849 280.964 168.295C279.97 167.798 278.82 167.443 277.36 167.379C278.351 166.878 279.808 166.885 280.711 166.29C280.72 166.068 280.729 165.847 280.737 165.627C279.088 165.5 278.46 164.763 277.373 164.166H277.373H277.372ZM260.394 161.067C258.918 162.572 264.532 164.623 266.32 164.734C266.31 163.781 266.859 162.884 266.749 162.201C264.625 161.826 261.836 162.073 260.394 161.067H260.394V161.067ZM278.569 161.774C278.561 161.921 278.37 161.867 278.34 161.987C280.237 163.478 281.647 163.786 284.23 163.657C285.396 162.808 286.429 161.815 287.641 161.019C284.849 161.269 281.334 163.012 278.568 161.774H278.569V161.774ZM295.249 166.857C295.17 165.184 294.733 161.747 293.704 161.145C291.545 159.879 287.708 163.701 286.083 164.284C286.259 164.795 286.551 165.201 286.573 165.855C287.535 165.618 288.706 165.78 289.539 166.192C288.576 166.3 287.507 166.293 286.87 166.754C286.636 167.432 286.927 168.357 286.772 169.3C289.059 169.947 291.671 170.293 294.562 170.378C295.124 169.643 295.316 168.243 295.249 166.857V166.857L295.25 166.857L295.249 166.857ZM257.91 162.523C257.448 162.191 254.313 158.094 253.884 158.264C248.214 160.511 242.911 164.397 238.172 168.072C242.689 177.812 244.514 189.746 244.836 201.248C250.011 203.681 254.557 207.187 261.58 207.552C260.767 201.775 260.025 196.62 259.564 191.181C257.799 190.434 255.268 191.216 253.617 190.949C253.603 188.95 256.139 190.074 256.35 188.729C256.509 187.712 254.954 187.635 255.461 186.034C256.752 186.505 257.43 187.546 258.806 187.938C260.064 185.172 258.789 180.279 258.97 177.968C259.005 177.534 259.186 175.564 260.153 175.909C261.01 176.215 260.104 181.149 260.197 183.337C260.283 185.353 259.955 187.303 260.768 188.568C267.555 187.639 274.45 187.04 281.793 186.838C280.178 186.141 278.259 185.482 276.155 184.29C275.014 183.644 271.418 182.3 271.09 181.212C270.565 179.477 272.467 178.553 272.792 177.066C269.367 178.944 268.698 175.267 267.888 172.663C267.154 170.303 266.736 168.541 266.556 167.181C263.605 165.767 260.451 164.335 257.911 162.523H257.91V162.523ZM292.252 158.759C296.978 156.458 297.83 167.364 295.977 170.877C296.264 171.925 297.248 172.325 297.65 173.268C295.013 178.014 292.085 182.444 289.394 187.134C291.396 185.882 294.254 186.91 296.609 185.973C297.471 185.632 298.093 183.652 298.745 182.068C300.538 177.709 302.42 172.215 303.257 168.055C303.447 167.108 303.962 165.043 303.846 164.2C303.641 162.689 301.601 161.57 300.564 160.636C298.653 158.911 297.45 157.394 295.456 155.781C294.648 156.979 292.914 157.784 292.252 158.759H292.253L292.252 158.759ZM247.104 116.658C244.852 119.146 245.323 123.811 245.596 127.129C249.666 124.556 255.068 127.332 255.017 131.707C256.96 131.655 255.742 129.269 255.391 127.731C254.243 122.71 257.326 117.255 255.531 112.663C252.046 112.929 249.182 114.359 247.104 116.658L247.104 116.658H247.104ZM263.214 102.211C258.117 103.663 251.585 107.384 249.491 111.985C251.112 111.747 252.238 110.926 253.838 110.824C254.444 110.785 255.235 111.078 255.93 110.905C257.314 110.56 258.483 107.44 259.527 106.28C260.546 105.146 261.771 104.661 262.608 103.628C263.146 103.367 263.942 103.385 263.973 102.573C263.739 102.323 263.493 102.132 263.214 102.211H263.214ZM289.747 103.576C284.457 100.578 275.502 98.3216 269.875 101.14C265.335 103.415 259.196 107.179 257.103 111.948C259.058 116.552 256.524 120.769 256.362 125.442C256.276 127.928 257.527 130.099 257.623 132.806C256.953 133.915 254.911 134.052 253.496 133.976C253.02 131.581 252.186 128.89 249.731 128.619C246.259 128.237 243.72 131.125 243.562 134.143C243.375 137.692 246.275 143.574 250.385 143.165C251.972 143.008 252.362 141.409 254.092 141.425C255.028 143.305 252.645 143.895 252.4 145.239C252.336 145.586 252.598 146.943 252.75 147.58C253.496 150.678 255.16 154.689 256.798 157.048C258.876 160.041 262.961 160.491 267.355 160.785C268.139 159.086 271.03 159.226 272.914 159.671C270.657 158.772 268.558 156.595 266.818 154.667C264.821 152.455 262.797 150.083 262.695 147.192C266.47 152.454 269.59 157.051 276.455 159.365C281.65 161.116 287.717 158.564 291.708 155.747C293.363 154.576 294.353 152.719 295.53 151.019C299.934 144.652 301.99 135.565 301.538 126.758C301.352 123.125 301.36 119.505 300.147 117.061C298.88 114.505 294.592 112.22 292.082 114.531C291.617 112.046 294.169 110.508 297.167 111.403C295.03 108.63 292.786 105.299 289.748 103.576H289.748H289.747ZM299.603 185.536C303.737 183.471 311.462 179.979 314.053 185.544C315.01 187.596 316.132 191.064 316.628 193.182C317.327 196.169 315.869 202.449 312.812 203.452C310.112 204.338 306.962 204.284 303.71 203.627C303.328 203.307 302.901 202.749 302.603 202.168C300.282 202.077 298.107 202.293 296.272 203.252C296.447 204.977 295.285 205.254 294.196 205.61C293.389 208.825 295.811 213.025 295.232 215.958C294.818 218.046 292.26 218.37 290.38 218.76C290.318 219.921 290.463 220.89 290.591 221.872C290.161 223.464 288.233 224.37 286.404 224.592C280.395 225.317 271.267 225.644 265.486 223.555C263.872 219.578 262.6 214.741 261.257 210.201C255.618 210.807 251.056 207.756 246.756 205.758C245.268 205.065 243.208 204.682 242.652 203.492C242.113 202.339 242.334 200.13 242.2 198.043C241.86 192.714 241.569 187.572 240.168 182.115C239.538 179.666 238.442 177.504 237.677 175.145C236.971 172.958 235.736 170.255 235.413 168.074C234.936 164.842 237.965 164.662 239.901 163.261C242.896 161.096 245.247 159.898 248.489 157.943C249.45 157.364 252.346 155.899 252.675 155.224C253.33 153.885 251.551 151.999 251.076 150.95C250.323 149.291 249.931 147.882 249.823 146.245C247.103 145.814 245.04 144.187 243.795 142.353C241.735 139.317 240.305 133.701 242.088 129.429C242.227 129.092 242.925 128.431 243.028 127.914C243.231 126.897 242.646 125.543 242.61 124.462C242.423 118.91 243.545 114.125 247.265 112.451C248.776 106.405 254.181 104.395 259.274 101.391C261.177 100.268 263.276 99.5506 265.444 98.7494C273.218 95.8749 285.146 96.4158 291.598 101.319C294.334 103.399 298.708 107.789 300.271 110.967C304.403 119.358 304.11 133.383 301.22 143.59C300.832 144.96 300.268 146.975 299.481 148.621C298.932 149.77 297.228 152.071 297.434 153.086C297.648 154.135 301.322 156.938 302.109 157.701C303.528 159.076 306.223 160.901 306.442 162.636C306.676 164.483 305.632 167.008 305.102 168.791C303.335 174.738 301.609 180.234 299.604 185.535H299.603L299.603 185.536Z" fill="#231F20"/>
<path d="M272.022 144.373C272.246 144.073 273.479 143.618 275.204 144.452C275.204 144.452 273.159 144.795 273.33 148.22L272.479 148.049C272.478 148.049 271.597 144.943 272.022 144.373V144.373Z" fill="#F7E4CD"/>
<path d="M286.962 173.816C286.962 174.066 286.863 174.305 286.687 174.482C286.512 174.658 286.273 174.757 286.025 174.757C285.777 174.757 285.538 174.658 285.363 174.482C285.187 174.305 285.088 174.066 285.088 173.816C285.088 173.566 285.187 173.327 285.363 173.151C285.538 172.974 285.777 172.875 286.025 172.875C286.273 172.875 286.513 172.974 286.687 173.151C286.863 173.328 286.962 173.566 286.962 173.816ZM287.899 178.182C287.899 178.432 287.8 178.672 287.625 178.848C287.448 179.025 287.21 179.124 286.961 179.124C286.713 179.124 286.475 179.024 286.298 178.847C286.122 178.671 286.024 178.431 286.024 178.181C286.024 177.931 286.123 177.692 286.299 177.516C286.475 177.339 286.713 177.24 286.962 177.24C287.211 177.24 287.449 177.34 287.624 177.517C287.8 177.693 287.899 177.933 287.899 178.182H287.899H287.899H287.899Z" fill="#1D1919"/>
<path fill-rule="evenodd" clip-rule="evenodd" d="M223.396 265.447V241.919L245.571 229.056V203.8L265.205 192.41V241.194L223.396 265.447Z" fill="#85A3E7" stroke="white" stroke-width="2.55996" stroke-miterlimit="22.9256"/>
<path fill-rule="evenodd" clip-rule="evenodd" d="M216.318 265.447V241.919L194.143 229.056V203.8L174.51 192.41V241.194L216.318 265.447Z" fill="#85A3E7" stroke="white" stroke-width="2.55996" stroke-miterlimit="22.9256"/>
<path fill-rule="evenodd" clip-rule="evenodd" d="M261.785 185.423L241.507 197.507L219.332 184.293L197.563 197.265L177.929 185.565L219.976 160.509L261.785 185.423Z" fill="#85A3E7" stroke="white" stroke-width="2.55996" stroke-miterlimit="22.9256"/>
<path fill-rule="evenodd" clip-rule="evenodd" d="M226.501 196.253L207.721 228.938L201.076 225.083V203.293L219.857 192.398L226.501 196.253Z" fill="#5B85DF" stroke="white" stroke-width="2.55996" stroke-miterlimit="22.9256"/>
<path fill-rule="evenodd" clip-rule="evenodd" d="M213.213 232.124L231.995 199.439L238.639 203.294V225.083L219.858 235.979L213.213 232.124Z" fill="#3367D6" stroke="white" stroke-width="2.55996" stroke-miterlimit="22.9256"/>
</svg>
